<svg version="1.2" xmlns="http://www.w3.org/2000/svg" viewBox="0 0 1000 500" width="1000" height="500">
	<title>20549624_6308552</title>
	<defs>
		<clipPath clipPathUnits="userSpaceOnUse" id="cp1">
			<path d="m1000 500h-1000v-500h1000z"/>
		</clipPath>
		<linearGradient id="g1" x2="1" gradientUnits="userSpaceOnUse" gradientTransform="matrix(-4.479,52.258,-236.194,-20.245,468.347,359.975)">
			<stop offset="0" stop-color="#3d1f33"/>
			<stop offset="1" stop-color="#412854"/>
		</linearGradient>
	</defs>
	<style>
		.s0 { fill: url(#g1) } 
		.s1 { fill: #351831 } 
	</style>
	<g id="BACKGROUND">
		<g id="&lt;Clip Group&gt;" clip-path="url(#cp1)">
			<g id="Layer 3">
				<path id="&lt;Path&gt;" class="s0" d="m-7.5 290.6c2-5 7.6-5.7 12.3-5.7 46.4 0.4 93.4 0.9 138.1 15.6 47.8 15.7 91.2 47 139.3 60.9 41.6 12.1 85.1 10.5 127.9 8.9q41.7-1.5 83.4-3.1c26.5-0.9 53.1-1.9 79.4-5.8 19.3-2.8 38.4-7.1 57.6-11 35.7-7.3 54.8-2.1 90.8-7.9 35.3-5.7 80.6-7.3 123.1-15.9 15.1-3.1 31.7 7.6 45-1.5l7.5 77-610.7 71.8c0 0-299.2-19.5-300.3-24.4-1-4.8-4.6-107-4.6-107z"/>
				<path id="&lt;Path&gt;" class="s1" d="m597.2 354.9q1.4-0.7 2.7-1.4c-0.6 0.1-1.2-0.2-1.7-0.8q1.1-0.5 2.2-1c-0.8-0.4-1.4-1.1-1.9-2.1q0.8-0.4 1.7-0.9-0.4-0.3-0.7-0.7 0.3-0.2 0.6-0.4c-0.4-0.6-0.6-1.3-0.8-2.1q0.6-0.3 1.2-0.6c-0.5-0.2-0.9-0.7-1.3-1.3q1.6-0.6 3.3-1.3-1-1.5-2-3 0.8 0 1.6-0.1c-0.2-0.5-0.5-1-0.8-1.3q0.6-0.3 1.2-0.6-0.2-0.4-0.5-0.8 0.3-0.3 0.5-0.6-0.3-0.3-0.6-0.7c0.2 0.1 0.5 0 0.6-0.4q-0.2-0.4-0.4-0.8c0.3 0.1 0.5-0.6 0.4-1.2-0.1-0.5-0.4-0.8-0.6-1.1q0.8 0.2 1.7 0.4c-0.2-0.2-0.3 0.6-0.2 1 0.2 0.5 0.4 1 0.1 1.4q0.4 0.4 0.8 0.8c-0.2-0.2-0.2 0.8 0.1 0.9 0.2 0.2 0.6 0.1 0.7 0.5q-0.3 0.4-0.5 0.8 0.6 1 1.4 1.5-0.2 0.4-0.5 0.7c1.1 0.6 0.7 1.1 1.8 1.4-1 0.6-1.7 0.7-2.7 1.3 0.8 0.4 2.1 1 2.9 1.4-0.8 0.3-2 0.9-2.6 1.8 0.9 0.1 2 0.9 2.9 1.7-0.8 0.3-1.8 0.5-2.5 1.3 1.1 0.7 2.1 1.6 3.2 2.3-1.2 0.5-1.2 0.8-2.3 1.3 0.7 0.5 2.7 0.9 3.3 1.6-0.8 0-3 0.6-3.7 1.4q1.4 0.4 2.8 0.8c-0.4 0.3-0.9 0.6-1.3 1 0.7-0.1 1.4 0.1 2 0.6-4.2 1.7-8.3 1.9-12.4-0.1 1 0 2-0.2 2.9-0.8-0.4-0.2-2.2-2-2.6-1.8z"/>
				<path id="&lt;Path&gt;" class="s1" d="m576.7 359.9q0.8-0.4 1.6-0.8c-0.4 0-0.7-0.1-1-0.5q0.6-0.3 1.3-0.6c-0.5-0.3-0.9-0.7-1.2-1.3q0.5-0.3 1-0.5-0.2-0.2-0.4-0.4 0.2-0.2 0.4-0.3-0.3-0.5-0.5-1.3 0.4-0.1 0.8-0.3c-0.3-0.1-0.6-0.4-0.8-0.9q1-0.3 1.9-0.7-0.5-0.9-1.1-1.8 0.4-0.1 0.9-0.1-0.2-0.5-0.4-0.8 0.3-0.2 0.7-0.4-0.2-0.2-0.3-0.4 0.1-0.2 0.3-0.4-0.2-0.2-0.4-0.4c0.1 0.1 0.3 0 0.4-0.3q-0.2-0.2-0.3-0.5c0.2 0.1 0.3-0.3 0.3-0.7-0.1-0.3-0.3-0.5-0.4-0.6q0.5 0.1 1 0.2c-0.1-0.1-0.2 0.4-0.1 0.6 0.1 0.3 0.2 0.6 0.1 0.8q0.2 0.3 0.5 0.5c-0.2-0.1-0.2 0.5 0 0.6 0.2 0.1 0.4 0 0.4 0.3q-0.1 0.2-0.3 0.5 0.4 0.6 0.9 0.9-0.1 0.2-0.3 0.4c0.6 0.3 0.4 0.7 1.1 0.9-0.7 0.3-1 0.4-1.7 0.8 0.5 0.2 1.3 0.6 1.8 0.8-0.5 0.2-1.2 0.5-1.6 1.1 0.6 0.1 1.2 0.6 1.8 1-0.5 0.2-1.1 0.3-1.5 0.8 0.6 0.4 1.2 1 1.9 1.4-0.7 0.3-0.7 0.5-1.4 0.8 0.4 0.3 1.7 0.6 2 1-0.5 0-1.8 0.4-2.2 0.8q0.8 0.3 1.7 0.5-0.4 0.3-0.8 0.6c0.4 0 0.8 0.1 1.2 0.4-2.6 1-5 1.1-7.6-0.1 0.7 0 1.3-0.1 1.8-0.5-0.2-0.1-1.3-1.2-1.5-1.1z"/>
				<path id="&lt;Path&gt;" class="s1" d="m671.6 345.3q0.8-0.4 1.6-0.8c-0.3 0-0.7-0.2-1-0.5q0.6-0.3 1.3-0.6c-0.5-0.3-0.8-0.7-1.2-1.3q0.5-0.3 1.1-0.5-0.3-0.3-0.5-0.5 0.2-0.1 0.4-0.2-0.3-0.6-0.5-1.3 0.4-0.2 0.8-0.3c-0.3-0.2-0.6-0.5-0.8-0.9q1-0.4 2-0.7-0.6-0.9-1.2-1.9 0.5 0 0.9 0-0.1-0.5-0.4-0.8 0.3-0.2 0.7-0.4-0.2-0.2-0.3-0.5 0.1-0.1 0.3-0.3-0.2-0.2-0.4-0.4c0.2 0 0.3-0.1 0.4-0.3q-0.1-0.3-0.3-0.5c0.2 0.1 0.3-0.4 0.3-0.7-0.1-0.3-0.3-0.5-0.4-0.7q0.5 0.1 1.1 0.3c-0.2-0.2-0.2 0.3-0.2 0.6 0.1 0.2 0.2 0.6 0.1 0.8q0.2 0.2 0.5 0.5c-0.2-0.1-0.1 0.5 0 0.6 0.2 0 0.4 0 0.5 0.2q-0.2 0.3-0.4 0.5 0.4 0.6 0.9 0.9-0.1 0.3-0.3 0.5c0.7 0.3 0.4 0.7 1.1 0.8-0.6 0.4-1 0.5-1.6 0.8 0.4 0.3 1.2 0.6 1.7 0.9-0.5 0.2-1.2 0.5-1.6 1 0.6 0.1 1.3 0.6 1.8 1.1-0.5 0.2-1.1 0.3-1.5 0.8 0.7 0.4 1.2 1 1.9 1.3-0.7 0.4-0.7 0.6-1.4 0.9 0.4 0.3 1.7 0.5 2 0.9-0.5 0.1-1.8 0.4-2.2 0.9q0.8 0.2 1.7 0.4-0.4 0.3-0.8 0.7c0.4-0.1 0.8 0 1.2 0.4-2.6 1-5 1.1-7.5-0.1 0.6 0 1.2-0.1 1.8-0.5-0.3-0.1-1.4-1.2-1.6-1.1z"/>
				<path id="&lt;Path&gt;" class="s1" d="m689.7 343.5q0.8-0.5 1.6-0.9c-0.3 0-0.7-0.1-1-0.5q0.6-0.3 1.3-0.6c-0.5-0.2-0.9-0.7-1.2-1.3q0.5-0.2 1.1-0.5-0.3-0.2-0.5-0.4 0.2-0.1 0.4-0.3-0.3-0.5-0.5-1.2 0.4-0.2 0.8-0.4c-0.3-0.1-0.6-0.4-0.8-0.8q1-0.4 1.9-0.8-0.5-0.9-1.1-1.8 0.4 0 0.9 0-0.1-0.6-0.4-0.8 0.3-0.2 0.7-0.4-0.2-0.3-0.3-0.5 0.1-0.2 0.3-0.4-0.2-0.2-0.4-0.4c0.1 0.1 0.3 0 0.4-0.2q-0.1-0.3-0.3-0.5c0.2 0 0.3-0.4 0.3-0.7-0.1-0.3-0.3-0.5-0.4-0.7q0.5 0.1 1.1 0.2c-0.2-0.1-0.3 0.4-0.2 0.6 0.1 0.3 0.2 0.7 0.1 0.9q0.2 0.2 0.5 0.4c-0.2 0-0.1 0.5 0 0.6 0.2 0.1 0.4 0 0.5 0.3q-0.2 0.2-0.4 0.5 0.4 0.6 0.9 0.9-0.1 0.2-0.3 0.5c0.7 0.3 0.4 0.6 1.1 0.8-0.6 0.3-1 0.4-1.6 0.8 0.4 0.2 1.2 0.6 1.7 0.8-0.5 0.2-1.2 0.6-1.6 1.1 0.6 0.1 1.3 0.6 1.8 1-0.5 0.2-1.1 0.4-1.5 0.9 0.7 0.3 1.2 0.9 1.9 1.3-0.7 0.3-0.7 0.5-1.4 0.8 0.4 0.3 1.7 0.6 2 1-0.5 0-1.8 0.4-2.2 0.9q0.8 0.2 1.7 0.4-0.4 0.3-0.8 0.6c0.4 0 0.8 0.1 1.2 0.4-2.6 1-5 1.2-7.5-0.1 0.6 0 1.2-0.1 1.7-0.5-0.2-0.1-1.3-1.1-1.5-1z"/>
				<path id="&lt;Path&gt;" class="s1" d="m735.1 338.1q0.8-0.4 1.7-0.8c-0.4 0-0.8-0.2-1.1-0.5q0.7-0.3 1.3-0.6c-0.4-0.3-0.8-0.7-1.1-1.3q0.5-0.3 1-0.5-0.2-0.2-0.4-0.4 0.2-0.2 0.4-0.3-0.4-0.5-0.5-1.3 0.3-0.2 0.7-0.3c-0.3-0.2-0.6-0.5-0.8-0.9q1-0.3 2-0.7-0.6-0.9-1.2-1.9 0.5 0 1 0-0.2-0.5-0.5-0.8 0.4-0.2 0.7-0.4-0.1-0.2-0.3-0.5 0.2-0.1 0.3-0.3-0.2-0.2-0.4-0.4c0.2 0 0.4-0.1 0.4-0.3q-0.1-0.2-0.2-0.5c0.1 0.1 0.3-0.4 0.2-0.7 0-0.3-0.2-0.5-0.4-0.6q0.6 0.1 1.1 0.2c-0.2-0.1-0.2 0.3-0.1 0.6 0.1 0.3 0.2 0.6 0.1 0.8q0.2 0.3 0.4 0.5c-0.1-0.1-0.1 0.5 0.1 0.6 0.1 0.1 0.3 0 0.4 0.2q-0.2 0.3-0.3 0.5 0.4 0.7 0.9 1-0.2 0.2-0.3 0.4c0.6 0.3 0.4 0.7 1 0.8-0.6 0.4-1 0.5-1.6 0.8 0.5 0.3 1.3 0.6 1.7 0.9-0.4 0.2-1.1 0.5-1.5 1 0.5 0.1 1.2 0.6 1.7 1.1-0.5 0.2-1 0.3-1.5 0.8 0.7 0.4 1.3 1 1.9 1.4-0.6 0.3-0.6 0.5-1.3 0.8 0.4 0.3 1.6 0.5 2 0.9-0.5 0.1-1.9 0.4-2.3 0.9q0.9 0.2 1.7 0.5-0.4 0.3-0.8 0.6c0.4-0.1 0.9 0 1.2 0.4-2.5 1-5 1.1-7.5-0.1 0.6 0 1.2-0.1 1.8-0.5-0.3-0.1-1.4-1.2-1.6-1.1z"/>
				<path id="&lt;Path&gt;" class="s1" d="m722 341q0.8-0.4 1.6-0.9c-0.4 0.1-0.7-0.1-1-0.4q0.6-0.3 1.3-0.6c-0.5-0.3-0.9-0.8-1.2-1.3q0.5-0.3 1.1-0.6-0.3-0.2-0.5-0.4 0.2-0.1 0.4-0.2-0.3-0.6-0.5-1.3 0.4-0.2 0.8-0.4c-0.3-0.1-0.6-0.4-0.8-0.8q1-0.4 1.9-0.7-0.5-1-1.1-1.9 0.4 0 0.9 0-0.2-0.5-0.4-0.8 0.3-0.2 0.7-0.4-0.2-0.3-0.3-0.5 0.1-0.2 0.3-0.3-0.2-0.2-0.4-0.5c0.1 0.1 0.3 0 0.4-0.2q-0.1-0.3-0.3-0.5c0.2 0 0.3-0.4 0.3-0.7-0.1-0.3-0.3-0.5-0.4-0.7q0.5 0.1 1.1 0.2c-0.2-0.1-0.3 0.4-0.2 0.7 0.1 0.2 0.2 0.6 0.1 0.8q0.2 0.2 0.5 0.5c-0.2-0.1-0.2 0.4 0 0.5 0.2 0.1 0.4 0.1 0.5 0.3q-0.2 0.3-0.4 0.5 0.4 0.6 0.9 0.9-0.1 0.3-0.3 0.5c0.7 0.3 0.4 0.7 1.1 0.8-0.6 0.4-1 0.5-1.6 0.8 0.4 0.2 1.2 0.6 1.7 0.8-0.5 0.2-1.2 0.6-1.6 1.1 0.6 0.1 1.3 0.6 1.8 1.1-0.5 0.1-1.1 0.3-1.5 0.8 0.7 0.4 1.2 0.9 1.9 1.3-0.7 0.4-0.7 0.5-1.4 0.9 0.4 0.2 1.7 0.5 2 0.9-0.5 0-1.8 0.4-2.2 0.9q0.8 0.2 1.7 0.4-0.4 0.3-0.8 0.6c0.4 0 0.8 0.1 1.2 0.5-2.6 0.9-5 1.1-7.5-0.1 0.6 0 1.2-0.2 1.7-0.5-0.2-0.2-1.3-1.2-1.5-1.1z"/>
				<path id="&lt;Path&gt;" class="s1" d="m638.6 347.2q1.3-0.7 2.7-1.4c-0.6 0.1-1.2-0.2-1.7-0.8q1-0.5 2.1-1c-0.7-0.4-1.3-1.1-1.9-2.1q0.9-0.4 1.7-0.8-0.3-0.4-0.7-0.7 0.3-0.3 0.7-0.5c-0.4-0.6-0.7-1.3-0.9-2.1q0.7-0.3 1.3-0.5c-0.5-0.2-1-0.7-1.3-1.4q1.6-0.6 3.2-1.2-0.9-1.6-1.9-3.1 0.8 0 1.5 0c-0.1-0.6-0.4-1-0.7-1.4q0.6-0.3 1.1-0.6-0.2-0.4-0.4-0.8 0.2-0.3 0.4-0.6-0.3-0.3-0.6-0.6c0.3 0.1 0.6-0.1 0.7-0.5q-0.2-0.4-0.5-0.8c0.3 0.1 0.5-0.6 0.4-1.1-0.1-0.5-0.3-0.9-0.6-1.1q0.9 0.1 1.8 0.3c-0.3-0.2-0.4 0.6-0.2 1.1 0.1 0.4 0.3 1 0.1 1.3q0.4 0.4 0.8 0.8c-0.3-0.1-0.2 0.8 0 0.9 0.3 0.2 0.6 0.1 0.8 0.5q-0.3 0.4-0.6 0.8 0.7 1 1.5 1.5-0.2 0.4-0.5 0.8c1.1 0.5 0.7 1.1 1.7 1.3-1 0.6-1.6 0.8-2.6 1.3 0.8 0.4 2 1 2.8 1.4-0.8 0.4-1.9 0.9-2.6 1.8 1 0.1 2.1 1 2.9 1.7-0.8 0.3-1.7 0.5-2.4 1.3 1.1 0.7 2 1.6 3.1 2.3-1.1 0.5-1.1 0.8-2.2 1.4 0.6 0.4 2.7 0.8 3.3 1.5-0.8 0.1-3 0.7-3.7 1.4q1.4 0.4 2.8 0.8c-0.5 0.3-0.9 0.6-1.4 1 0.7-0.1 1.4 0.1 2 0.7-4.2 1.6-8.2 1.8-12.4-0.2 1 0 2.1-0.2 3-0.8-0.5-0.2-2.3-1.9-2.6-1.8z"/>
				<path id="&lt;Path&gt;" class="s1" d="m679.4 344.1q1.3-0.8 2.7-1.5c-0.6 0.1-1.2-0.2-1.7-0.8q1-0.5 2.1-0.9c-0.7-0.5-1.4-1.2-1.9-2.2q0.9-0.4 1.7-0.8-0.3-0.4-0.7-0.7 0.3-0.2 0.7-0.5c-0.4-0.5-0.7-1.3-0.9-2.1q0.7-0.2 1.3-0.5c-0.5-0.2-1-0.7-1.3-1.4q1.6-0.6 3.2-1.2-0.9-1.5-1.9-3.1 0.8 0 1.5 0c-0.1-0.6-0.4-1-0.7-1.3q0.6-0.4 1.1-0.7-0.2-0.4-0.4-0.8 0.2-0.3 0.4-0.6-0.3-0.3-0.6-0.6c0.3 0.1 0.6-0.1 0.7-0.5q-0.2-0.4-0.5-0.8c0.3 0.1 0.5-0.6 0.4-1.1-0.1-0.5-0.3-0.9-0.6-1.1q0.9 0.1 1.8 0.3c-0.3-0.2-0.4 0.6-0.2 1.1 0.1 0.4 0.3 1 0.1 1.3q0.4 0.4 0.8 0.8c-0.3-0.1-0.2 0.8 0 0.9 0.3 0.2 0.6 0.1 0.8 0.5q-0.3 0.4-0.6 0.8 0.7 1 1.5 1.5-0.3 0.4-0.5 0.8c1 0.5 0.7 1.1 1.7 1.3-1 0.6-1.6 0.8-2.6 1.3 0.8 0.4 2 1 2.8 1.4-0.8 0.4-1.9 0.9-2.6 1.8 1 0.1 2.1 1 2.9 1.7-0.8 0.3-1.7 0.5-2.4 1.4 1.1 0.6 2 1.5 3.1 2.2-1.1 0.5-1.1 0.8-2.2 1.4 0.6 0.4 2.7 0.8 3.3 1.5-0.8 0.1-3 0.7-3.7 1.5q1.4 0.3 2.8 0.7c-0.5 0.3-0.9 0.6-1.4 1 0.7-0.1 1.4 0.1 2 0.7-4.2 1.6-8.2 1.8-12.4-0.2 1 0 2.1-0.2 3-0.8-0.5-0.2-2.3-1.9-2.6-1.7z"/>
				<path id="&lt;Path&gt;" class="s1" d="m725.9 339q1.4-0.7 2.8-1.4c-0.7 0-1.3-0.3-1.8-0.8q1.1-0.5 2.2-1c-0.7-0.4-1.4-1.2-1.9-2.2q0.8-0.4 1.7-0.8-0.4-0.3-0.7-0.7 0.3-0.2 0.6-0.4c-0.3-0.6-0.6-1.3-0.8-2.1q0.6-0.3 1.2-0.6c-0.5-0.2-0.9-0.7-1.3-1.4q1.7-0.6 3.3-1.2-1-1.5-1.9-3 0.7-0.1 1.5-0.1c-0.2-0.5-0.4-1-0.7-1.3q0.5-0.3 1.1-0.7-0.2-0.4-0.5-0.7 0.3-0.3 0.5-0.6-0.3-0.4-0.6-0.7c0.2 0.1 0.5-0.1 0.7-0.4q-0.3-0.4-0.5-0.9c0.3 0.1 0.5-0.6 0.4-1.1-0.1-0.5-0.4-0.8-0.6-1.1q0.9 0.2 1.7 0.4c-0.2-0.2-0.3 0.6-0.2 1 0.2 0.4 0.4 1 0.2 1.3q0.3 0.4 0.7 0.8c-0.2-0.1-0.2 0.8 0.1 1 0.2 0.1 0.6 0 0.7 0.4q-0.2 0.4-0.5 0.8 0.6 1 1.5 1.6-0.3 0.3-0.5 0.7c1 0.5 0.6 1.1 1.7 1.4-1 0.5-1.7 0.7-2.7 1.3 0.8 0.4 2.1 1 2.9 1.3-0.8 0.4-2 1-2.6 1.8 0.9 0.2 2 1 2.9 1.8-0.8 0.2-1.8 0.5-2.5 1.3 1.1 0.6 2.1 1.6 3.2 2.2-1.2 0.6-1.1 0.9-2.3 1.4 0.7 0.5 2.7 0.9 3.3 1.6-0.8 0-3 0.6-3.7 1.4q1.4 0.4 2.8 0.7c-0.4 0.3-0.9 0.7-1.3 1 0.7 0 1.4 0.1 2 0.7-4.2 1.6-8.3 1.9-12.4-0.1 1 0 2-0.2 2.9-0.9-0.4-0.2-2.2-1.9-2.6-1.7z"/>
				<path id="&lt;Path&gt;" class="s1" d="m604.5 355.5q1.8-1 3.6-1.9c-0.8 0-1.6-0.4-2.3-1.1q1.5-0.7 2.9-1.4c-1-0.5-1.8-1.6-2.5-2.9q1.1-0.5 2.2-1.1-0.4-0.5-0.9-0.9 0.4-0.4 0.9-0.7c-0.5-0.7-0.9-1.7-1.2-2.8q0.9-0.4 1.7-0.7c-0.6-0.3-1.3-1-1.7-1.9q2.2-0.8 4.3-1.7-1.2-2-2.5-4.1 1 0 2-0.1c-0.2-0.7-0.5-1.3-1-1.8q0.8-0.4 1.6-0.9-0.3-0.5-0.6-1 0.3-0.4 0.6-0.8-0.4-0.4-0.8-0.9c0.3 0.1 0.7-0.1 0.9-0.6q-0.3-0.5-0.7-1.1c0.4 0.1 0.7-0.8 0.6-1.5-0.1-0.7-0.5-1.2-0.9-1.5q1.2 0.2 2.4 0.4c-0.3-0.2-0.4 0.9-0.2 1.5 0.1 0.5 0.4 1.3 0.1 1.8q0.6 0.5 1.1 1c-0.4-0.1-0.3 1.1 0 1.3 0.4 0.2 0.8 0.1 1 0.6q-0.3 0.6-0.7 1.1c0.6 0.9 1.3 1.6 2 2.1q-0.3 0.5-0.7 1c1.5 0.7 0.9 1.5 2.4 1.8-1.4 0.8-2.2 1-3.6 1.8 1.1 0.5 2.8 1.4 3.8 1.9-1 0.5-2.6 1.2-3.5 2.4 1.3 0.2 2.8 1.3 4 2.3-1.1 0.4-2.4 0.7-3.4 1.8 1.5 0.9 2.8 2.2 4.3 3.1-1.5 0.7-1.5 1.1-3 1.8 0.8 0.7 3.6 1.2 4.4 2.1-1.1 0.1-4.1 0.9-5 2q1.9 0.5 3.8 1c-0.6 0.4-1.2 0.8-1.8 1.3 0.9 0 1.9 0.2 2.7 1-5.7 2.2-11.2 2.5-16.8-0.3 1.3 0.1 2.7-0.2 4-1.1-0.6-0.2-3.1-2.6-3.5-2.3z"/>
				<path id="&lt;Path&gt;" class="s1" d="m645.2 347.5q1.8-1 3.7-1.9c-0.9 0-1.7-0.4-2.4-1.1q1.5-0.7 2.9-1.4c-0.9-0.6-1.8-1.6-2.5-2.9q1.1-0.6 2.3-1.1-0.5-0.5-1-1 0.5-0.3 0.9-0.6c-0.5-0.7-0.9-1.7-1.1-2.8q0.8-0.4 1.7-0.8c-0.7-0.2-1.3-0.9-1.8-1.8q2.2-0.9 4.4-1.7-1.3-2-2.6-4.1 1 0 2-0.1c-0.2-0.7-0.5-1.4-0.9-1.8q0.7-0.4 1.5-0.9-0.3-0.5-0.6-1 0.3-0.4 0.6-0.8-0.4-0.5-0.8-0.9c0.3 0.1 0.7-0.1 0.9-0.6q-0.3-0.6-0.6-1.1c0.4 0.1 0.6-0.9 0.5-1.6-0.1-0.6-0.5-1.1-0.8-1.5q1.2 0.3 2.4 0.5c-0.4-0.2-0.5 0.9-0.3 1.4 0.2 0.6 0.4 1.4 0.2 1.8q0.5 0.6 1 1.1c-0.4-0.1-0.3 1.1 0.1 1.3 0.3 0.2 0.8 0.1 1 0.6q-0.4 0.6-0.7 1.1c0.5 0.9 1.2 1.6 1.9 2.1q-0.3 0.5-0.6 1c1.4 0.7 0.9 1.5 2.3 1.8-1.4 0.8-2.2 1-3.6 1.8 1.1 0.5 2.8 1.3 3.9 1.9-1.1 0.4-2.7 1.2-3.6 2.4 1.3 0.2 2.8 1.3 4 2.3-1.1 0.4-2.4 0.7-3.3 1.8 1.4 0.9 2.7 2.2 4.2 3-1.5 0.8-1.5 1.2-3 1.9 0.9 0.6 3.6 1.2 4.4 2.1-1.1 0.1-4.1 0.9-5 2q1.9 0.5 3.8 0.9c-0.6 0.5-1.2 0.9-1.8 1.4 0.9 0 1.9 0.2 2.7 0.9-5.7 2.2-11.2 2.6-16.8-0.2 1.4 0.1 2.8-0.2 4-1.1-0.6-0.2-3-2.6-3.5-2.3z"/>
				<path id="&lt;Path&gt;" class="s1" d="m695.8 341.4q1.9-1 3.7-1.9c-0.8 0-1.7-0.3-2.4-1.1q1.5-0.7 2.9-1.4c-0.9-0.5-1.8-1.5-2.5-2.9q1.1-0.5 2.3-1.1-0.5-0.5-1-0.9 0.5-0.3 0.9-0.6c-0.5-0.8-0.9-1.8-1.1-2.9q0.8-0.4 1.7-0.7c-0.7-0.3-1.3-1-1.8-1.9q2.2-0.8 4.4-1.6-1.3-2.1-2.6-4.2 1 0 2.1 0c-0.3-0.8-0.6-1.4-1-1.8q0.8-0.5 1.5-0.9-0.3-0.6-0.6-1.1 0.3-0.4 0.6-0.8-0.4-0.4-0.8-0.9c0.4 0.2 0.7-0.1 0.9-0.6q-0.3-0.5-0.6-1.1c0.4 0.1 0.7-0.8 0.5-1.5-0.1-0.7-0.5-1.2-0.8-1.5q1.2 0.2 2.4 0.5c-0.4-0.3-0.5 0.8-0.3 1.4 0.2 0.5 0.5 1.3 0.2 1.8q0.5 0.5 1 1.1c-0.3-0.2-0.3 1 0.1 1.2 0.3 0.2 0.8 0.1 1 0.7q-0.4 0.5-0.7 1.1c0.6 0.9 1.2 1.6 2 2q-0.4 0.5-0.7 1c1.4 0.7 0.9 1.5 2.3 1.8-1.4 0.8-2.2 1-3.6 1.8 1.1 0.6 2.8 1.4 3.9 1.9-1.1 0.5-2.6 1.2-3.5 2.4 1.2 0.2 2.7 1.3 3.9 2.3-1.1 0.4-2.4 0.7-3.3 1.8 1.5 0.9 2.7 2.2 4.2 3.1-1.5 0.7-1.5 1.1-3 1.8 0.9 0.7 3.6 1.2 4.4 2.2-1 0-4 0.8-4.9 1.9q1.8 0.5 3.7 1c-0.6 0.4-1.2 0.9-1.8 1.4 1-0.1 1.9 0.1 2.7 0.9-5.6 2.2-11.2 2.5-16.8-0.2 1.4 0 2.8-0.3 4-1.1-0.6-0.3-3-2.7-3.5-2.4z"/>
				<path id="&lt;Path&gt;" class="s1" d="m615.4 351.6q2.2-1.1 4.3-2.2c-1 0.1-1.9-0.3-2.7-1.2q1.7-0.8 3.3-1.6c-1.1-0.6-2.1-1.8-2.9-3.3q1.3-0.7 2.6-1.4-0.5-0.5-1.1-1 0.5-0.4 1.1-0.7c-0.6-0.9-1.1-2.1-1.4-3.3q1-0.5 2-0.9c-0.8-0.3-1.5-1.1-2-2.2q2.5-0.9 5-1.9-1.5-2.3-3-4.7 1.2-0.1 2.4-0.1c-0.2-0.9-0.6-1.6-1.1-2.1q0.9-0.5 1.8-1-0.4-0.6-0.7-1.2 0.3-0.5 0.7-0.9-0.5-0.6-1-1.1c0.4 0.2 0.8-0.1 1.1-0.7q-0.4-0.6-0.8-1.3c0.5 0.2 0.8-0.9 0.7-1.7-0.2-0.9-0.6-1.4-1-1.8q1.4 0.3 2.8 0.6c-0.4-0.3-0.6 0.9-0.4 1.6 0.3 0.7 0.6 1.6 0.2 2.1q0.6 0.6 1.2 1.3c-0.4-0.2-0.3 1.2 0.1 1.4 0.4 0.3 1 0.1 1.2 0.7q-0.4 0.7-0.8 1.3c0.6 1.1 1.4 1.9 2.2 2.4q-0.3 0.6-0.7 1.2c1.6 0.8 1 1.7 2.7 2.1-1.6 0.9-2.6 1.1-4.2 2 1.3 0.7 3.2 1.6 4.5 2.2-1.3 0.5-3.1 1.4-4.1 2.8 1.5 0.2 3.2 1.5 4.6 2.7-1.3 0.4-2.8 0.8-3.9 2.1 1.7 1 3.2 2.5 4.9 3.5-1.7 0.8-1.7 1.3-3.5 2.1 1 0.8 4.2 1.4 5.2 2.5-1.3 0-4.7 1-5.8 2.2q2.2 0.6 4.4 1.2c-0.7 0.5-1.4 1-2.1 1.5 1.1 0 2.1 0.2 3.1 1.1-6.6 2.6-12.9 2.9-19.4-0.2 1.5 0 3.2-0.3 4.6-1.3-0.7-0.3-3.5-3-4.1-2.8z"/>
				<path id="&lt;Path&gt;" class="s1" d="m658 342.5q2.1-1.1 4.3-2.2c-1 0.1-1.9-0.4-2.7-1.3q1.6-0.7 3.3-1.5c-1.1-0.7-2.1-1.8-2.9-3.4q1.3-0.6 2.6-1.3-0.5-0.5-1.1-1.1 0.5-0.3 1-0.7c-0.5-0.9-1-2-1.3-3.3q1-0.4 2-0.8c-0.8-0.4-1.5-1.1-2-2.2q2.5-1 5-1.9-1.5-2.4-3-4.8 1.2 0 2.4-0.1c-0.3-0.8-0.7-1.5-1.1-2q0.9-0.5 1.8-1.1-0.4-0.6-0.8-1.2 0.4-0.4 0.7-0.9-0.4-0.5-0.9-1c0.4 0.1 0.8-0.1 1-0.7q-0.3-0.7-0.7-1.3c0.5 0.1 0.8-1 0.7-1.8-0.2-0.8-0.6-1.3-1-1.7q1.4 0.3 2.7 0.5c-0.4-0.3-0.5 1-0.3 1.7 0.2 0.6 0.5 1.5 0.2 2.1q0.6 0.6 1.2 1.2c-0.4-0.2-0.3 1.3 0.1 1.5 0.4 0.2 0.9 0.1 1.2 0.7q-0.4 0.6-0.9 1.3c0.7 1 1.5 1.8 2.3 2.3q-0.4 0.6-0.7 1.2c1.6 0.8 1 1.8 2.7 2.1-1.6 1-2.6 1.2-4.2 2.1 1.2 0.6 3.2 1.5 4.5 2.2-1.3 0.5-3.1 1.4-4.1 2.7 1.5 0.3 3.2 1.6 4.5 2.7-1.2 0.5-2.7 0.9-3.8 2.1 1.7 1.1 3.2 2.5 4.9 3.5-1.8 0.9-1.7 1.4-3.5 2.2 1 0.7 4.2 1.4 5.1 2.4-1.2 0.1-4.7 1-5.7 2.3q2.2 0.5 4.3 1.1c-0.7 0.5-1.4 1-2 1.6 1-0.1 2.1 0.2 3.1 1.1-6.6 2.5-12.9 2.9-19.4-0.3 1.5 0.1 3.1-0.3 4.6-1.3-0.8-0.3-3.5-3-4.1-2.7z"/>
				<path id="&lt;Path&gt;" class="s1" d="m707.8 340.5q2.1-1.1 4.3-2.2c-1 0.1-1.9-0.3-2.8-1.2q1.7-0.8 3.4-1.6c-1.1-0.6-2.1-1.8-2.9-3.3q1.3-0.7 2.6-1.4-0.5-0.5-1.1-1 0.5-0.4 1-0.7c-0.5-0.9-1-2.1-1.3-3.3q1-0.5 2-0.9c-0.8-0.3-1.5-1.1-2.1-2.2q2.6-0.9 5.1-1.9-1.5-2.4-3-4.7 1.2-0.1 2.4-0.1c-0.3-0.9-0.7-1.6-1.2-2.1q0.9-0.5 1.8-1-0.3-0.6-0.7-1.2 0.4-0.5 0.7-0.9-0.4-0.6-0.9-1.1c0.4 0.2 0.8-0.1 1-0.7q-0.3-0.6-0.7-1.3c0.5 0.2 0.8-1 0.6-1.8-0.1-0.8-0.5-1.3-0.9-1.7q1.3 0.3 2.7 0.6c-0.4-0.3-0.5 0.9-0.3 1.6 0.2 0.7 0.5 1.6 0.2 2.1q0.6 0.6 1.2 1.3c-0.4-0.2-0.3 1.2 0.1 1.4 0.4 0.2 0.9 0.1 1.2 0.7q-0.5 0.7-0.9 1.3c0.7 1.1 1.5 1.9 2.3 2.4q-0.4 0.6-0.8 1.2c1.7 0.8 1.1 1.7 2.7 2.1-1.6 0.9-2.5 1.1-4.1 2 1.2 0.6 3.2 1.6 4.4 2.2-1.2 0.5-3 1.4-4 2.8 1.5 0.2 3.2 1.5 4.5 2.7-1.2 0.4-2.7 0.8-3.8 2.1 1.7 1 3.2 2.4 4.9 3.5-1.8 0.8-1.7 1.3-3.5 2.1 1 0.7 4.2 1.4 5.1 2.5-1.2 0-4.7 1-5.7 2.2q2.1 0.6 4.3 1.1c-0.7 0.6-1.4 1.1-2.1 1.6 1.1 0 2.2 0.2 3.2 1.1-6.6 2.5-13 2.9-19.4-0.2 1.5 0 3.1-0.3 4.6-1.3-0.8-0.3-3.5-3-4.1-2.8z"/>
			</g>
		</g>
	</g>
	<g id="OBJECTS">
	</g>
</svg>