<svg version="1.2" xmlns="http://www.w3.org/2000/svg" viewBox="0 0 1000 500" width="1000" height="500">
	<title>20549624_6308552</title>
	<defs>
		<clipPath clipPathUnits="userSpaceOnUse" id="cp1">
			<path d="m1000 500h-1000v-500h1000z"/>
		</clipPath>
		<linearGradient id="g1" x2="1" gradientUnits="userSpaceOnUse" gradientTransform="matrix(3.796,50.611,-195.211,14.641,326.064,402.741)">
			<stop offset="0" stop-color="#3d1f33"/>
			<stop offset="1" stop-color="#412854"/>
		</linearGradient>
		<linearGradient id="g2" x2="1" gradientUnits="userSpaceOnUse" gradientTransform="matrix(9.093,73.568,-176.244,21.783,855.756,304.817)">
			<stop offset="0" stop-color="#3d1f33"/>
			<stop offset="1" stop-color="#412854"/>
		</linearGradient>
	</defs>
	<style>
		.s0 { fill: url(#g1) } 
		.s1 { fill: #351831 } 
		.s2 { fill: url(#g2) } 
	</style>
	<g id="BACKGROUND">
		<g id="&lt;Clip Group&gt;" clip-path="url(#cp1)">
			<g id="Layer 2">
				<path id="&lt;Path&gt;" class="s0" d="m-18.7 342.5c86 44.5 181.7 38.7 274 48.6 34.5 3.8 68.9 9.8 103.7 8.8 28.6-0.8 57.2-6.3 85.8-5.9 26.9 0.5 53.5 6.3 79.9 12 29.2 6.4 59.5 13.3 83.5 36.6 14 13.5 27.9 33.3 45.1 29.5l-480-3.1-213.9 18.8z"/>
				<path id="&lt;Path&gt;" class="s1" d="m396.1 400q3.3-1.7 6.7-3.5c-1.5 0.1-3-0.6-4.3-2q2.7-1.2 5.3-2.4c-1.7-1.1-3.4-2.9-4.6-5.4q2.1-1 4.2-2.1-0.9-0.8-1.8-1.7 0.8-0.5 1.6-1.1c-0.9-1.4-1.6-3.2-2.1-5.2q1.6-0.7 3.2-1.3c-1.3-0.6-2.4-1.8-3.3-3.5q4-1.5 8-3-2.3-3.8-4.7-7.6 1.9 0 3.8-0.1c-0.4-1.3-1.1-2.5-1.8-3.3q1.4-0.8 2.8-1.6-0.6-1-1.1-1.9 0.5-0.7 1.1-1.4-0.7-0.9-1.5-1.7c0.6 0.2 1.3-0.2 1.7-1.1q-0.6-1-1.2-2.1c0.7 0.3 1.3-1.5 1-2.8-0.2-1.2-0.9-2-1.5-2.7q2.1 0.4 4.3 0.9c-0.6-0.5-0.8 1.5-0.5 2.6 0.4 1 0.9 2.5 0.3 3.3q1 1 2 2c-0.7-0.4-0.6 1.9 0.1 2.3 0.6 0.3 1.5 0.1 1.8 1.1q-0.6 1-1.3 2.1c1.1 1.6 2.3 2.9 3.6 3.7q-0.6 0.9-1.2 1.9c2.6 1.2 1.6 2.7 4.3 3.3-2.5 1.5-4.1 1.8-6.6 3.3 2 0.9 5.1 2.4 7.1 3.4-2 0.8-4.8 2.3-6.5 4.4 2.4 0.4 5.1 2.4 7.2 4.3-2 0.7-4.3 1.3-6 3.3 2.7 1.6 5 3.9 7.7 5.5-2.8 1.4-2.7 2.1-5.5 3.5 1.6 1.1 6.7 2.1 8.1 3.8-2 0.1-7.4 1.6-9.1 3.6q3.4 0.9 6.9 1.8c-1.1 0.8-2.2 1.6-3.3 2.5 1.7-0.1 3.4 0.2 4.9 1.7-10.3 4-20.4 4.6-30.7-0.4 2.5 0 5-0.5 7.3-2-1.2-0.5-5.6-4.8-6.4-4.4z"/>
				<path id="&lt;Path&gt;" class="s1" d="m261.7 390.5q6.1-3.2 12.2-6.4c-2.7 0.2-5.5-1.1-7.8-3.6q4.9-2.3 9.7-4.5c-3.2-2-6.1-5.4-8.5-9.8q3.8-1.9 7.7-3.8-1.6-1.6-3.2-3.2 1.4-1 2.9-2c-1.6-2.6-2.9-5.9-3.8-9.5q2.9-1.3 5.7-2.6c-2.2-0.9-4.3-3.1-5.9-6.3q7.4-2.7 14.7-5.4-4.4-7-8.7-13.9 3.5-0.1 6.9-0.2c-0.7-2.5-1.9-4.7-3.3-6.1q2.6-1.5 5.2-3-1-1.7-2-3.5 1-1.3 2-2.6-1.3-1.5-2.7-3.1c1.1 0.5 2.3-0.3 3-1.9q-1.1-1.9-2.1-3.8c1.3 0.4 2.3-2.8 1.8-5.1-0.4-2.4-1.7-3.8-2.8-5.1q4 0.8 8 1.6c-1.1-0.8-1.6 2.9-0.9 4.8 0.6 1.9 1.5 4.6 0.5 6q1.8 1.9 3.6 3.7c-1.2-0.6-1 3.6 0.2 4.2 1.1 0.7 2.7 0.3 3.4 2.1q-1.2 1.9-2.4 3.8c1.9 3 4.2 5.3 6.6 6.8q-1.1 1.7-2.3 3.4c4.8 2.4 3 5 7.9 6.1-4.6 2.7-7.5 3.4-12.1 6.1 3.6 1.7 9.4 4.4 13 6.2-3.6 1.6-8.9 4.2-11.9 8.1 4.3 0.6 9.4 4.4 13.3 7.8-3.7 1.3-8.1 2.4-11.2 6.1 5 2.9 9.3 7.2 14.3 10.1-5.2 2.5-5.1 3.9-10.2 6.3 3 2.1 12.2 4 14.9 7.1-3.6 0.2-13.6 2.9-16.7 6.5q6.3 1.6 12.6 3.3c-2 1.5-4 2.9-6 4.6 3.1-0.2 6.3 0.5 9.1 3.1-19.1 7.4-37.6 8.4-56.4-0.7 4.5 0.1 9.2-0.9 13.4-3.7-2.1-1-10.2-8.8-11.7-8z"/>
				<path id="&lt;Path&gt;" class="s1" d="m-12.3 351.7q6.7-3.5 13.5-7c-3 0.2-6.1-1.2-8.6-4q5.3-2.4 10.6-4.9c-3.5-2.1-6.7-5.8-9.3-10.7q4.2-2.1 8.4-4.2-1.8-1.7-3.5-3.4 1.6-1.1 3.2-2.2c-1.8-2.9-3.2-6.5-4.2-10.5q3.2-1.3 6.3-2.7c-2.5-1.1-4.8-3.5-6.5-7q8.1-2.9 16.1-5.9-4.8-7.6-9.5-15.2 3.8-0.1 7.6-0.3c-0.9-2.7-2.1-5-3.7-6.6q2.9-1.6 5.7-3.3-1.1-1.9-2.2-3.8 1.1-1.4 2.2-2.8-1.5-1.7-2.9-3.4c1.2 0.5 2.5-0.4 3.2-2.2q-1.1-2.1-2.3-4.1c1.5 0.4 2.5-3.1 2-5.6-0.4-2.6-1.8-4.2-3.1-5.6q4.4 0.9 8.8 1.8c-1.2-0.9-1.7 3.1-1 5.2 0.7 2.1 1.7 5 0.6 6.6q1.9 2 3.9 4.1c-1.3-0.7-1.1 3.9 0.2 4.6 1.3 0.7 3 0.3 3.7 2.3q-1.3 2-2.6 4.1c2.1 3.3 4.6 5.8 7.2 7.5q-1.2 1.8-2.4 3.7c5.2 2.6 3.3 5.5 8.6 6.7-5.1 2.9-8.2 3.7-13.3 6.6 4 1.9 10.3 4.9 14.2 6.8-3.9 1.7-9.6 4.6-12.9 8.8 4.7 0.8 10.2 4.9 14.4 8.6-4 1.4-8.7 2.6-12.1 6.7 5.4 3.2 10.1 7.9 15.6 11.1-5.7 2.7-5.6 4.2-11.2 6.9 3.3 2.2 13.4 4.3 16.3 7.7-3.9 0.2-14.9 3.2-18.3 7.1q7 1.8 13.9 3.6c-2.2 1.7-4.5 3.3-6.6 5.1 3.4-0.3 6.9 0.5 9.9 3.4-20.8 8-41.1 9.2-61.7-0.8 5 0.1 10.1-1 14.7-4.1-2.3-1-11.2-9.6-12.9-8.7z"/>
				<path id="&lt;Path&gt;" class="s1" d="m50.4 370q6.1-3.2 12.3-6.4c-2.8 0.2-5.5-1.1-7.9-3.6q4.9-2.3 9.8-4.5c-3.3-2-6.2-5.3-8.6-9.8q3.8-1.9 7.7-3.8-1.6-1.6-3.2-3.1 1.5-1 2.9-2.1c-1.6-2.6-2.9-5.9-3.8-9.5q2.9-1.3 5.7-2.5c-2.2-1-4.3-3.2-5.9-6.3q7.4-2.8 14.7-5.5-4.4-7-8.7-13.9 3.5-0.1 6.9-0.2c-0.7-2.5-1.9-4.6-3.3-6q2.6-1.5 5.2-3-1-1.8-2-3.5 1-1.3 2-2.6-1.3-1.6-2.7-3.1c1.1 0.5 2.3-0.4 3-2q-1.1-1.9-2.1-3.8c1.3 0.4 2.3-2.8 1.8-5.1-0.4-2.3-1.7-3.8-2.8-5.1q4 0.8 8 1.7c-1.1-0.9-1.6 2.8-0.9 4.7 0.6 1.9 1.5 4.6 0.6 6q1.7 1.9 3.5 3.7c-1.2-0.6-1 3.6 0.2 4.3 1.2 0.6 2.7 0.2 3.4 2.1q-1.2 1.8-2.4 3.7c1.9 3 4.2 5.3 6.6 6.8q-1.1 1.7-2.2 3.5c4.7 2.3 2.9 5 7.8 6.1-4.6 2.6-7.4 3.3-12.1 6 3.6 1.7 9.4 4.4 13 6.2-3.6 1.6-8.8 4.2-11.9 8.1 4.4 0.6 9.4 4.4 13.3 7.8-3.7 1.3-8 2.4-11.1 6.1 4.9 2.9 9.2 7.2 14.2 10.1-5.1 2.5-5.1 3.9-10.2 6.3 3 2.1 12.2 4 14.9 7.1-3.6 0.2-13.6 2.9-16.7 6.5q6.3 1.6 12.6 3.3c-2 1.5-4 3-6 4.6 3.1-0.2 6.3 0.5 9.1 3.1-19.1 7.4-37.5 8.4-56.4-0.7 4.5 0.1 9.2-0.9 13.4-3.7-2.1-0.9-10.2-8.8-11.7-8z"/>
				<path id="&lt;Path&gt;" class="s1" d="m407.9 386.1q6.1-3.2 12.3-6.4c-2.8 0.2-5.6-1.1-7.9-3.7q4.9-2.2 9.7-4.5c-3.2-1.9-6.1-5.3-8.5-9.7q3.8-1.9 7.7-3.9-1.6-1.5-3.2-3.1 1.5-1 2.9-2c-1.6-2.6-2.9-5.9-3.8-9.5q2.9-1.3 5.7-2.6c-2.2-0.9-4.3-3.2-5.9-6.3q7.4-2.7 14.7-5.5-4.4-6.9-8.7-13.9 3.5-0.1 6.9-0.2c-0.7-2.5-1.9-4.6-3.3-6q2.6-1.5 5.2-3-1-1.7-2-3.5 1-1.3 2-2.6-1.3-1.5-2.7-3.1c1.1 0.5 2.3-0.3 3-2q-1.1-1.9-2.1-3.8c1.3 0.5 2.3-2.7 1.8-5.1-0.4-2.3-1.7-3.8-2.8-5q4 0.8 8 1.6c-1.1-0.8-1.6 2.8-0.9 4.8 0.6 1.9 1.5 4.5 0.6 6q1.7 1.8 3.5 3.7c-1.2-0.6-1 3.5 0.2 4.2 1.1 0.7 2.7 0.3 3.4 2.1q-1.2 1.9-2.4 3.7c1.9 3 4.2 5.4 6.6 6.9q-1.1 1.7-2.3 3.4c4.8 2.3 3 5 7.9 6.1-4.6 2.7-7.5 3.4-12.1 6 3.6 1.8 9.4 4.5 13 6.2-3.6 1.6-8.8 4.2-11.9 8.1 4.4 0.7 9.4 4.4 13.3 7.9-3.7 1.3-8.1 2.3-11.2 6 5 3 9.3 7.2 14.3 10.2-5.1 2.4-5.1 3.8-10.2 6.3 3 2.1 12.2 4 14.9 7-3.6 0.2-13.6 3-16.7 6.5q6.3 1.7 12.6 3.3c-2 1.6-4 3-6 4.7 3.1-0.3 6.3 0.4 9.1 3-19.1 7.4-37.6 8.5-56.4-0.7 4.5 0.1 9.2-0.8 13.4-3.7-2.1-0.9-10.2-8.7-11.7-7.9z"/>
				<path id="&lt;Path&gt;" class="s1" d="m173.9 378.8q6.2-3.2 12.3-6.4c-2.7 0.2-5.5-1.1-7.8-3.7q4.9-2.2 9.7-4.5c-3.2-1.9-6.2-5.3-8.5-9.7q3.8-1.9 7.7-3.9-1.6-1.5-3.3-3.1 1.5-1 3-2c-1.6-2.6-2.9-5.9-3.8-9.5q2.9-1.3 5.7-2.6c-2.2-0.9-4.3-3.2-5.9-6.3q7.3-2.7 14.7-5.5-4.4-6.9-8.7-13.8 3.4-0.2 6.9-0.3c-0.8-2.5-1.9-4.6-3.3-6q2.6-1.5 5.2-3-1-1.7-2.1-3.5 1.1-1.3 2.1-2.6-1.4-1.5-2.7-3.1c1.1 0.5 2.3-0.3 3-2q-1.1-1.9-2.2-3.8c1.4 0.5 2.4-2.7 1.9-5.1-0.4-2.3-1.7-3.8-2.8-5q4 0.8 8 1.6c-1.2-0.8-1.6 2.8-1 4.8 0.7 1.9 1.6 4.5 0.6 6q1.8 1.8 3.5 3.7c-1.1-0.6-0.9 3.5 0.3 4.2 1.1 0.7 2.7 0.3 3.3 2.1q-1.1 1.9-2.3 3.7c1.9 3 4.2 5.4 6.6 6.9q-1.2 1.7-2.3 3.4c4.8 2.3 3 5 7.9 6.1-4.7 2.7-7.5 3.4-12.1 6 3.6 1.8 9.3 4.5 13 6.2-3.6 1.6-8.9 4.2-11.9 8.1 4.3 0.7 9.3 4.4 13.2 7.9-3.6 1.3-8 2.3-11.1 6 5 3 9.3 7.2 14.3 10.2-5.2 2.4-5.1 3.8-10.2 6.3 2.9 2.1 12.2 4 14.9 7-3.6 0.2-13.7 3-16.7 6.5q6.3 1.7 12.6 3.3c-2 1.6-4.1 3-6 4.7 3.1-0.3 6.3 0.4 9.1 3-19.1 7.4-37.6 8.5-56.4-0.7 4.5 0.1 9.2-0.8 13.4-3.7-2.1-0.9-10.2-8.7-11.8-7.9z"/>
				<path id="&lt;Path&gt;" class="s1" d="m19.5 368.8q4.9-2.5 9.8-5c-2.2 0.1-4.4-0.9-6.3-2.9q3.9-1.8 7.8-3.6c-2.6-1.5-4.9-4.2-6.8-7.8q3-1.5 6.1-3-1.3-1.3-2.6-2.5 1.2-0.8 2.4-1.6c-1.3-2.1-2.4-4.7-3-7.6q2.2-1 4.5-2c-1.8-0.7-3.5-2.5-4.7-5q5.8-2.2 11.7-4.4-3.5-5.5-6.9-11 2.7-0.1 5.5-0.2c-0.6-1.9-1.6-3.6-2.7-4.7q2.1-1.2 4.2-2.4-0.8-1.4-1.7-2.8 0.8-1 1.7-2.1-1.1-1.2-2.2-2.4c0.9 0.4 1.9-0.3 2.4-1.6q-0.9-1.5-1.7-3c1.1 0.3 1.8-2.2 1.5-4.1-0.4-1.8-1.4-3-2.3-4q3.2 0.6 6.4 1.3c-0.9-0.7-1.3 2.2-0.8 3.8 0.5 1.5 1.3 3.6 0.5 4.8q1.4 1.4 2.8 2.9c-0.9-0.5-0.8 2.8 0.2 3.4 0.9 0.5 2.1 0.2 2.7 1.6q-1 1.5-1.9 3c1.5 2.4 3.3 4.2 5.2 5.4q-0.9 1.4-1.8 2.8c3.8 1.8 2.4 3.9 6.3 4.8-3.7 2.1-5.9 2.7-9.6 4.8 2.8 1.4 7.4 3.5 10.3 4.9-2.9 1.3-7 3.3-9.4 6.4 3.4 0.6 7.4 3.6 10.5 6.3-2.9 1-6.4 1.9-8.9 4.8 4 2.4 7.4 5.7 11.3 8.1-4 1.9-4 3-8 5 2.3 1.6 9.7 3.1 11.8 5.6-2.9 0.1-10.8 2.3-13.3 5.1q5 1.4 10.1 2.7c-1.6 1.2-3.3 2.3-4.8 3.6 2.5-0.1 5 0.4 7.2 2.5-15.2 5.9-29.8 6.7-44.8-0.6 3.6 0.1 7.3-0.7 10.7-2.9-1.7-0.8-8.2-7-9.4-6.4z"/>
				<path id="&lt;Path&gt;" class="s1" d="m205.4 390q4.9-2.6 9.7-5.1c-2.1 0.1-4.3-0.9-6.2-2.9q3.9-1.8 7.8-3.6c-2.6-1.5-5-4.2-6.8-7.7q3-1.6 6.1-3.1-1.3-1.2-2.6-2.5 1.2-0.8 2.4-1.6c-1.3-2.1-2.4-4.7-3.1-7.6q2.3-1 4.6-2c-1.8-0.7-3.5-2.5-4.7-5q5.8-2.2 11.6-4.3-3.4-5.6-6.9-11.1 2.8-0.1 5.5-0.1c-0.6-2-1.5-3.7-2.6-4.8q2.1-1.2 4.1-2.4-0.8-1.4-1.6-2.8 0.8-1 1.6-2.1-1-1.2-2.1-2.4c0.9 0.4 1.8-0.3 2.4-1.6q-0.9-1.5-1.7-3c1 0.3 1.8-2.2 1.4-4.1-0.3-1.8-1.3-3-2.2-4q3.2 0.6 6.4 1.3c-1-0.7-1.3 2.3-0.8 3.8 0.5 1.5 1.2 3.6 0.5 4.8q1.4 1.4 2.8 2.9c-1-0.5-0.8 2.8 0.1 3.4 1 0.5 2.2 0.2 2.7 1.6q-0.9 1.5-1.9 3c1.6 2.4 3.4 4.2 5.3 5.4q-0.9 1.4-1.8 2.8c3.8 1.8 2.4 3.9 6.3 4.8-3.7 2.1-6 2.7-9.7 4.8 2.9 1.4 7.5 3.5 10.3 4.9-2.8 1.3-7 3.4-9.4 6.4 3.5 0.6 7.4 3.6 10.5 6.3-2.9 1-6.3 1.9-8.8 4.8 4 2.4 7.4 5.7 11.3 8.1-4.1 1.9-4 3-8.1 5 2.4 1.6 9.8 3.1 11.9 5.6-2.9 0.1-10.9 2.3-13.3 5.1q5 1.4 10 2.7c-1.6 1.2-3.2 2.3-4.8 3.7 2.5-0.2 5 0.3 7.3 2.4-15.2 5.9-29.9 6.7-44.8-0.6 3.6 0.1 7.3-0.7 10.6-2.9-1.7-0.7-8.1-7-9.3-6.3z"/>
				<path id="&lt;Path&gt;" class="s1" d="m145.7 374.1q4.8-2.5 9.7-5c-2.2 0.1-4.4-0.9-6.2-2.9q3.9-1.8 7.7-3.6c-2.5-1.6-4.9-4.2-6.8-7.8q3.1-1.5 6.1-3-1.2-1.3-2.5-2.5 1.2-0.8 2.3-1.6c-1.3-2.1-2.3-4.7-3-7.6q2.3-1 4.6-2c-1.8-0.8-3.5-2.5-4.7-5q5.8-2.2 11.6-4.4-3.4-5.5-6.9-11 2.8-0.1 5.5-0.2c-0.6-2-1.5-3.6-2.6-4.8q2.1-1.2 4.1-2.4-0.8-1.3-1.6-2.7 0.8-1.1 1.6-2.1-1.1-1.2-2.1-2.5c0.8 0.4 1.8-0.2 2.3-1.5q-0.8-1.5-1.7-3c1.1 0.3 1.9-2.3 1.5-4.1-0.3-1.8-1.3-3-2.2-4q3.1 0.6 6.3 1.3c-0.9-0.7-1.2 2.2-0.7 3.8 0.5 1.5 1.2 3.6 0.5 4.7q1.4 1.5 2.7 3c-0.9-0.5-0.7 2.8 0.2 3.3 0.9 0.6 2.2 0.2 2.7 1.7q-0.9 1.5-1.9 3c1.6 2.4 3.3 4.2 5.3 5.4q-0.9 1.4-1.8 2.7c3.7 1.9 2.4 4 6.2 4.9-3.7 2.1-5.9 2.7-9.6 4.8 2.9 1.4 7.4 3.5 10.3 4.9-2.8 1.3-7 3.3-9.4 6.4 3.4 0.6 7.4 3.5 10.5 6.3-2.9 1-6.3 1.8-8.8 4.8 3.9 2.3 7.3 5.7 11.3 8.1-4.1 1.9-4 3-8.1 4.9 2.4 1.7 9.7 3.2 11.9 5.7-2.9 0.1-10.9 2.3-13.3 5.1q5 1.3 10 2.7c-1.6 1.2-3.2 2.3-4.8 3.6 2.5-0.2 5 0.4 7.2 2.5-15.1 5.8-29.8 6.7-44.7-0.6 3.5 0.1 7.3-0.7 10.6-2.9-1.7-0.8-8.1-7-9.3-6.4z"/>
				<path id="&lt;Path&gt;" class="s1" d="m322.7 397.2q4.8-2.5 9.7-5c-2.2 0.1-4.3-0.9-6.2-2.9q3.9-1.8 7.7-3.6c-2.5-1.6-4.9-4.2-6.8-7.8q3.1-1.5 6.1-3-1.2-1.3-2.5-2.5 1.2-0.8 2.3-1.6c-1.3-2.1-2.3-4.7-3-7.6q2.3-1 4.6-2c-1.8-0.7-3.5-2.5-4.7-5q5.8-2.2 11.6-4.4-3.4-5.5-6.9-11 2.8-0.1 5.5-0.2c-0.6-1.9-1.5-3.6-2.6-4.7q2.1-1.2 4.1-2.4-0.8-1.4-1.6-2.8 0.8-1 1.6-2.1-1.1-1.2-2.1-2.4c0.8 0.3 1.8-0.3 2.3-1.6q-0.8-1.5-1.7-3c1.1 0.3 1.9-2.2 1.5-4.1-0.3-1.8-1.3-3-2.2-4q3.1 0.6 6.3 1.3c-0.9-0.7-1.2 2.2-0.7 3.8 0.5 1.5 1.2 3.6 0.5 4.8q1.4 1.4 2.7 2.9c-0.9-0.5-0.7 2.8 0.2 3.4 0.9 0.5 2.2 0.2 2.7 1.6q-0.9 1.5-1.9 3c1.6 2.4 3.3 4.2 5.3 5.4q-0.9 1.4-1.8 2.8c3.7 1.8 2.4 3.9 6.2 4.8-3.7 2.1-5.9 2.7-9.6 4.8 2.9 1.4 7.5 3.5 10.3 4.9-2.8 1.3-7 3.3-9.4 6.4 3.4 0.6 7.4 3.5 10.5 6.3-2.9 1-6.3 1.9-8.8 4.8 3.9 2.3 7.3 5.7 11.3 8.1-4.1 1.9-4 3-8.1 5 2.4 1.6 9.7 3.1 11.9 5.6-2.9 0.1-10.9 2.3-13.3 5.1q5 1.3 10 2.7c-1.6 1.2-3.2 2.3-4.8 3.6 2.5-0.1 5 0.4 7.2 2.5-15.1 5.9-29.8 6.7-44.7-0.6 3.5 0.1 7.3-0.7 10.6-2.9-1.7-0.8-8.1-7-9.3-6.4z"/>
				<path id="&lt;Path&gt;" class="s1" d="m129.4 379.1q3.3-1.7 6.7-3.5c-1.5 0.1-3-0.6-4.3-2q2.7-1.2 5.3-2.4c-1.7-1.1-3.3-2.9-4.6-5.3q2.1-1.1 4.2-2.2-0.9-0.8-1.8-1.7 0.8-0.5 1.6-1.1c-0.9-1.4-1.6-3.2-2.1-5.2q1.6-0.7 3.2-1.3c-1.3-0.6-2.4-1.8-3.3-3.5q4-1.5 8-3-2.3-3.8-4.7-7.6 1.9 0 3.8-0.1c-0.4-1.3-1.1-2.5-1.8-3.3q1.4-0.8 2.8-1.6-0.5-1-1.1-1.9 0.5-0.7 1.1-1.4-0.7-0.9-1.5-1.7c0.6 0.2 1.3-0.2 1.7-1.1q-0.6-1-1.2-2.1c0.7 0.3 1.3-1.5 1-2.8-0.2-1.2-0.9-2-1.5-2.7q2.1 0.4 4.3 0.9c-0.6-0.5-0.8 1.5-0.5 2.6 0.4 1 0.9 2.5 0.3 3.3q1 1 2 2c-0.7-0.4-0.6 1.9 0.1 2.3 0.6 0.4 1.5 0.1 1.8 1.1q-0.6 1-1.3 2.1c1.1 1.6 2.3 2.9 3.6 3.7q-0.6 0.9-1.2 1.9c2.6 1.2 1.6 2.7 4.3 3.3-2.5 1.5-4.1 1.8-6.6 3.3 2 0.9 5.1 2.4 7.1 3.4-2 0.8-4.8 2.3-6.5 4.4 2.4 0.4 5.1 2.4 7.2 4.3-2 0.7-4.3 1.3-6 3.3 2.7 1.6 5 3.9 7.7 5.5-2.8 1.4-2.7 2.1-5.5 3.5 1.6 1.1 6.7 2.1 8.1 3.8-2 0.1-7.4 1.6-9.1 3.6q3.4 0.9 6.9 1.8c-1.1 0.8-2.2 1.6-3.3 2.5 1.7-0.1 3.4 0.2 5 1.7-10.4 4-20.5 4.6-30.8-0.4 2.5 0 5-0.5 7.3-2-1.2-0.5-5.6-4.8-6.4-4.4z"/>
				<path id="&lt;Path&gt;" class="s1" d="m352.2 392.7q3.3-1.7 6.7-3.5c-1.5 0.1-3-0.6-4.3-2q2.7-1.2 5.3-2.4c-1.7-1.1-3.3-2.9-4.6-5.3q2.1-1.1 4.2-2.2-0.9-0.8-1.8-1.7 0.8-0.5 1.6-1.1c-0.9-1.4-1.6-3.2-2.1-5.2q1.6-0.7 3.2-1.3c-1.3-0.6-2.4-1.8-3.3-3.5q4-1.5 8-3-2.3-3.8-4.7-7.6 1.9 0 3.8-0.1c-0.4-1.3-1.1-2.5-1.8-3.3q1.4-0.8 2.8-1.6-0.5-1-1.1-1.9 0.5-0.7 1.1-1.4-0.7-0.9-1.5-1.7c0.6 0.2 1.3-0.2 1.7-1.1q-0.6-1-1.2-2.1c0.7 0.3 1.3-1.5 1-2.8-0.2-1.2-0.9-2-1.5-2.7q2.1 0.4 4.3 0.9c-0.6-0.5-0.8 1.5-0.5 2.6 0.4 1 0.9 2.5 0.3 3.3q1 1 2 2c-0.7-0.4-0.6 1.9 0.1 2.3 0.6 0.4 1.5 0.1 1.8 1.1q-0.6 1-1.3 2.1c1.1 1.6 2.3 2.9 3.6 3.7q-0.6 0.9-1.2 1.9c2.6 1.2 1.6 2.7 4.3 3.3-2.5 1.5-4.1 1.8-6.6 3.3 2 0.9 5.1 2.4 7.1 3.4-2 0.8-4.8 2.3-6.5 4.4 2.4 0.4 5.1 2.4 7.2 4.3-2 0.7-4.3 1.3-6 3.3 2.7 1.6 5 3.9 7.7 5.5-2.8 1.4-2.7 2.1-5.5 3.5 1.6 1.1 6.7 2.1 8.1 3.8-2 0.1-7.4 1.6-9.1 3.6q3.4 0.9 6.9 1.8c-1.1 0.8-2.2 1.6-3.3 2.5 1.7-0.1 3.4 0.2 5 1.7-10.4 4-20.5 4.6-30.8-0.4 2.5 0 5-0.5 7.3-2-1.2-0.5-5.6-4.8-6.4-4.4z"/>
				<path id="&lt;Path&gt;" class="s1" d="m448.8 392.7q3.4-1.7 6.7-3.5c-1.4 0.1-3-0.6-4.2-2q2.6-1.2 5.3-2.4c-1.8-1.1-3.4-2.9-4.7-5.3q2.1-1.1 4.2-2.2-0.9-0.8-1.7-1.7 0.8-0.5 1.6-1.1c-0.9-1.4-1.6-3.2-2.1-5.2q1.6-0.7 3.1-1.3c-1.2-0.6-2.4-1.8-3.2-3.5q4-1.5 8-3-2.4-3.8-4.8-7.6 1.9 0 3.8-0.1c-0.4-1.3-1-2.5-1.8-3.3q1.4-0.8 2.9-1.6-0.6-1-1.2-1.9 0.6-0.7 1.2-1.4-0.8-0.9-1.5-1.7c0.6 0.2 1.3-0.2 1.6-1.1q-0.6-1-1.1-2.1c0.7 0.3 1.2-1.5 1-2.8-0.3-1.2-1-2-1.6-2.7q2.2 0.4 4.4 0.9c-0.6-0.5-0.9 1.5-0.5 2.6 0.3 1 0.8 2.5 0.3 3.3q1 1 1.9 2c-0.6-0.4-0.5 1.9 0.1 2.3 0.7 0.4 1.5 0.1 1.9 1.1q-0.7 1-1.3 2.1c1 1.6 2.3 2.9 3.6 3.7q-0.6 0.9-1.2 1.9c2.5 1.2 1.6 2.7 4.3 3.3-2.6 1.5-4.1 1.8-6.7 3.3 2 0.9 5.2 2.4 7.1 3.4-1.9 0.8-4.8 2.3-6.4 4.4 2.3 0.4 5.1 2.4 7.2 4.3-2 0.7-4.4 1.3-6.1 3.3 2.7 1.6 5.1 3.9 7.8 5.5-2.8 1.4-2.8 2.1-5.6 3.5 1.7 1.1 6.7 2.1 8.2 3.8-2 0.1-7.5 1.6-9.2 3.6q3.5 0.9 6.9 1.8c-1.1 0.8-2.2 1.6-3.3 2.5 1.8-0.1 3.5 0.2 5 1.7-10.4 4-20.5 4.6-30.7-0.4 2.4 0 5-0.5 7.3-2-1.2-0.5-5.6-4.8-6.5-4.4z"/>
				<path id="&lt;Path&gt;" class="s1" d="m302.6 395.4q3.4-1.7 6.7-3.4c-1.4 0.1-3-0.6-4.2-2q2.6-1.3 5.3-2.5c-1.8-1.1-3.4-2.9-4.7-5.3q2.1-1.1 4.2-2.1-0.9-0.9-1.7-1.7 0.8-0.6 1.6-1.1c-0.9-1.5-1.6-3.2-2.1-5.2q1.5-0.7 3.1-1.4c-1.2-0.5-2.4-1.8-3.2-3.5q4-1.5 8-2.9-2.4-3.8-4.8-7.6 1.9-0.1 3.8-0.1c-0.4-1.4-1-2.6-1.8-3.3q1.4-0.9 2.9-1.7-0.6-0.9-1.2-1.9 0.6-0.7 1.2-1.4-0.8-0.8-1.5-1.7c0.6 0.3 1.3-0.2 1.6-1.1q-0.6-1-1.2-2c0.8 0.2 1.3-1.6 1.1-2.8-0.3-1.3-1-2.1-1.6-2.8q2.2 0.5 4.4 0.9c-0.6-0.5-0.9 1.5-0.5 2.6 0.3 1 0.8 2.5 0.3 3.3q1 1 1.9 2c-0.6-0.3-0.5 1.9 0.1 2.3 0.7 0.4 1.5 0.2 1.9 1.2q-0.7 1-1.3 2c1 1.6 2.3 2.9 3.6 3.7q-0.6 1-1.2 1.9c2.5 1.3 1.6 2.7 4.3 3.3-2.6 1.5-4.1 1.9-6.7 3.3 2 1 5.2 2.4 7.1 3.4-1.9 0.9-4.8 2.3-6.4 4.4 2.3 0.4 5.1 2.4 7.2 4.3-2 0.7-4.4 1.3-6.1 3.3 2.7 1.6 5.1 3.9 7.8 5.6-2.8 1.3-2.8 2-5.6 3.4 1.6 1.1 6.7 2.2 8.2 3.8-2 0.1-7.5 1.6-9.2 3.6q3.5 0.9 6.9 1.8c-1.1 0.8-2.2 1.6-3.3 2.5 1.8-0.1 3.5 0.3 5 1.7-10.4 4-20.5 4.6-30.8-0.4 2.5 0.1 5.1-0.5 7.4-2-1.2-0.5-5.6-4.8-6.5-4.4z"/>
				<path id="&lt;Path&gt;" class="s1" d="m472.5 400q3.4-1.7 6.8-3.5c-1.5 0.1-3.1-0.6-4.3-2q2.6-1.2 5.3-2.4c-1.8-1.1-3.4-2.9-4.7-5.4q2.1-1 4.2-2.1-0.9-0.8-1.7-1.7 0.8-0.5 1.6-1.1c-0.9-1.4-1.6-3.2-2.1-5.2q1.6-0.7 3.1-1.3c-1.2-0.6-2.4-1.8-3.2-3.5q4-1.5 8-3-2.4-3.8-4.8-7.6 1.9 0 3.8-0.1c-0.4-1.3-1-2.5-1.8-3.3q1.5-0.8 2.9-1.6-0.6-1-1.2-1.9 0.6-0.7 1.2-1.4-0.8-0.9-1.5-1.7c0.6 0.2 1.3-0.2 1.6-1.1q-0.6-1-1.1-2.1c0.7 0.3 1.2-1.5 1-2.8-0.3-1.2-1-2-1.6-2.7q2.2 0.4 4.4 0.9c-0.6-0.5-0.9 1.5-0.5 2.6 0.3 1 0.8 2.5 0.3 3.3q1 1 1.9 2c-0.6-0.4-0.5 1.9 0.1 2.3 0.7 0.3 1.5 0.1 1.9 1.1q-0.7 1-1.3 2.1c1 1.6 2.3 2.9 3.6 3.7q-0.6 0.9-1.2 1.9c2.6 1.2 1.6 2.7 4.3 3.3-2.6 1.5-4.1 1.8-6.6 3.3 1.9 0.9 5.1 2.4 7 3.4-1.9 0.8-4.8 2.3-6.4 4.4 2.3 0.4 5.1 2.4 7.2 4.3-2 0.7-4.4 1.3-6.1 3.3 2.7 1.6 5.1 3.9 7.8 5.5-2.8 1.4-2.8 2.1-5.6 3.5 1.7 1.1 6.7 2.1 8.2 3.8-2 0.1-7.5 1.6-9.1 3.6q3.4 0.9 6.8 1.8c-1.1 0.8-2.2 1.6-3.2 2.5 1.7-0.1 3.4 0.2 4.9 1.7-10.4 4-20.5 4.6-30.7-0.4 2.4 0 5-0.5 7.3-2-1.2-0.5-5.6-4.8-6.5-4.4z"/>
				<path id="&lt;Path&gt;" class="s2" d="m537.4 408.9c30.6-1.3 61-9.5 88.6-25.2 3.6-2.1 7.3-4.3 11.2-5.6 4-1.2 8.1-1.3 12.2-1.6 19-1.4 37.7-6 56.3-10.5q28.5-7 56.9-14c15.2-3.7 30.4-7.5 44.7-14.1 24-11.1 45.2-30.3 60.6-54.8 3-4.8 6.2-10.1 11.1-11.3 3.1-0.8 6.2 0.2 9.2 0.6 6.7 0.9 13.4-0.8 19.9-2.6q19.6-5.3 39.2-10.6c3.6-1 7.5-2.2 10.2-5.3 4-4.5 4.4-12 7.5-17.5 4.4-8.2 13.5-10.6 21.6-10.8 17.3-0.3 34.7 6.5 48.4 19.2 0 0 9 12.5 12 15 3.1 2.4 0 122.8 0 122.8 0 0-161.3 75.4-165.4 76.7-4.1 1.2-322.7-14.6-322.7-14.6 0 0-26.6-35.6-21.5-35.8z"/>
			</g>
		</g>
	</g>
	<g id="OBJECTS">
	</g>
</svg>