<svg version="1.2" xmlns="http://www.w3.org/2000/svg" viewBox="0 0 1000 500" width="1000" height="500">
	<title>20549624_6308552</title>
	<defs>
		<clipPath clipPathUnits="userSpaceOnUse" id="cp1">
			<path d="m1000 500h-1000v-500h1000z"/>
		</clipPath>
		<linearGradient id="g1" x2="1" gradientUnits="userSpaceOnUse" gradientTransform="matrix(-44.573,152.822,-414.687,-120.95,435.867,218.107)">
			<stop offset="0" stop-color="#3d1f33"/>
			<stop offset="1" stop-color="#412854"/>
		</linearGradient>
	</defs>
	<style>
		.s0 { fill: url(#g1) } 
	</style>
	<g id="BACKGROUND">
		<g id="&lt;Clip Group&gt;" clip-path="url(#cp1)">
			<g id="Layer 4">
				<path id="&lt;Path&gt;" class="s0" d="m-19.6 223.8c24-13.3 58-7.7 58-7.7l21.1 8.9 95.3-6.4 70.5 26.3 33-0.1 40.3 25.7c0 0 51.3 21.3 78.1 24.9 27.4 3.8 55.8 2.6 81.6 14.7 22.4 10.4 66.9 29.2 66.9 29.2l19.3 12.6c0 0 7.8 4.7 11.8 6.5 3.8 1.7 7.7 2.4 11.7 3.1q26.5 4.8 53.1 9.6c0 0-362.5 130.1-365.5 124.8-3.1-5.2-288-132.2-288-132.2z"/>
			</g>
		</g>
	</g>
	<g id="OBJECTS">
	</g>
</svg>