<svg version="1.2" xmlns="http://www.w3.org/2000/svg" viewBox="0 0 1000 500" width="1000" height="500">
	<title>20549624_6308552</title>
	<defs>
		<clipPath clipPathUnits="userSpaceOnUse" id="cp1">
			<path d="m1000 500h-1000v-500h1000z"/>
		</clipPath>
		<linearGradient id="g1" x2="1" gradientUnits="userSpaceOnUse" gradientTransform="matrix(-1.943,114.652,-324.274,-5.496,476.222,208.184)">
			<stop offset="0" stop-color="#3d1f33"/>
			<stop offset="1" stop-color="#412854"/>
		</linearGradient>
	</defs>
	<style>
		.s0 { fill: url(#g1) } 
	</style>
	<g id="BACKGROUND">
		<g id="&lt;Clip Group&gt;" clip-path="url(#cp1)">
			<g id="Layer 6">
				<path id="&lt;Path&gt;" class="s0" d="m155.5 229.1l111 29.5h13.5c0 0 47-10.5 49.3-14.7 2.3-4.3 14.9-5.3 14.9-5.3l7.1 5.3c0 0 5.6-6.2 7.9-6.2 2.3 0 14.6-8.6 18.4-8.6 3.8 0 28.6-4.1 28.6-4.1l9.7-10.1 6.9 4.7 40.8 5.4c0 0 9.3 9 15.7 11.8 6.3 2.8 15.5-7.7 15.5-7.7 0 0 4.1 0 8.2 1 4 0.9 13.2 2.8 13.2 2.8l10-2.8c0 0 8.9-1 10.6 0.9 1.6 1.9 25.4 16.2 25.4 16.2l34.7-10.4 6.3 13.3 17.9-1 3.7 9.5h7.1l6.3-4.1c0 0 11.7 0.3 12.7 4.1 0.9 3.8 6.6 5 6.6 5 0 0 10.4 4.5 13.9 3.6 3.4-1 27.1-10 27.1-10l18.6 10.1 4.7 111.1-566.3 33.2z"/>
			</g>
		</g>
	</g>
	<g id="OBJECTS">
	</g>
</svg>