<svg version="1.2" xmlns="http://www.w3.org/2000/svg" viewBox="0 0 1000 500" width="1000" height="500">
	<title>20549624_6308552</title>
	<defs>
		<clipPath clipPathUnits="userSpaceOnUse" id="cp1">
			<path d="m1000 500h-1000v-500h1000z"/>
		</clipPath>
	</defs>
	<style>
		.s0 { fill: #351831 } 
	</style>
	<g id="BACKGROUND">
		<g id="&lt;Clip Group&gt;" clip-path="url(#cp1)">
			<g id="Layer 1">
				<path id="&lt;Path&gt;" class="s0" d="m671.4 404.2c-4.8-2-10.1-2.2-15-0.6-3.1 1.1-7.6 1.8-8.2-1.9q-3.1 1.3-6.3 2.5c-2.1 0.9-5.5 0.5-5.1-2.1q-0.9 2.2-1.8 4.5c-1.2-1.5-2-3.3-2.3-5.3q-1.6 1.5-3.3 2.9-1.2 1.1-2.5 2.1c-1.7-0.9-3-2.9-3.3-5.2q-1.5 2.8-3 5.5c-1-0.5-1.9-1.5-2.5-2.7-0.5 1.3-1.7 2.3-2.9 2.4-0.2-1.3-0.7-2.5-1.5-3.5-0.3 2-1.3 3.9-2.7 5.2-1.7-0.3-3-2.3-3-4.3q-1.5 1.8-2.9 3.7c-1.2-0.8-1.9-2.3-1.8-3.9q-1.3 2.7-2.6 5.5c-2.7-0.5-5.3-1.3-7.7-2.5q-1.7 2.1-3.4 4.3c-1.2-0.4-2.3-1.3-3-2.5 0.4 1.6-0.5 3.5-1.8 4-1.3 0.5-2.9-0.3-3.4-1.9q-1.1 1.7-2.2 3.3-1.2-1.3-2.3-2.7c-0.1 1.2-0.8 0.3-0.9 1.5-2.4 0.2-4.8-2.2-5.1-5.1-0.5 1.3-1.2 2.7-2.3 3.2-1.1 0.5-2.7-0.8-2.2-2.1q-1.3 3.2-2.5 6.5c-1.7-1.8-2.9-4.2-3.5-6.9-0.5 3.4-2 6.4-4.2 8.6q-1.3-2.7-2.6-5.4c0.4 1.1-0.8 2.5-1.7 1.9q-2.8-2.4-5.6-4.7c-1.2 3.4-4.2 5.8-7.2 5.9-1.1 0.3-2.2-0.9-2-2.2-0.4 1.5-1 2.8-1.9 3.9q-0.8-1.6-1.6-3.1c-0.6 1.5-1.6 2.7-2.8 3.5-1.1-0.8-1.9-2.1-2.5-3.5q-2.1 4.2-4.3 8.3c-1.7-1.6-2.8-4-3.2-6.6q-2.3 2.2-4.7 4.4-1.1-1.1-2.3-2.2c-0.7 2.4-4.3 2.1-4.8-0.5q-1.3 1.9-2.7 3.8c-1.2-0.6-2.1-2-2.3-3.5q-1.9 4-3.9 8.1c-2.1-2-3.7-4.9-4.3-8.1q-0.9 2.5-1.9 5.1c0.2-1.1-1.2-1.8-2.1-1.3-0.8 0.5-1.2 1.7-1.5 2.8q-1.5-2.3-3-4.6c0.4 3.3-4.6 4.5-5.4 1.3-0.1 1.4-0.5 2.9-1.5 3.7-0.8 0.7-2 0.5-2.6-0.4 0.5 1.8-1.5 3.9-3.1 3.2-1.8-0.7-2.6-3.3-2.6-5.5q-1.6 1.2-3.3 2.5-1.2-2-2.5-4c0.4 1.6-1.5 3.9-2.8 3.9q-1.5-2.9-2.9-5.9c0.3 2.2-0.5 4.7-2.2 5.5-1.7 0.7-4-1.4-3.2-3.4q-1.2 2.6-2.4 5.2c-1.1-1.2-2-2.8-2.5-4.5 0.3 1.8 0 3.7-0.9 5.1-1.3-1.3-2.2-3.2-2.5-5.2 0.4 1.9-1 4.1-2.7 4.1-1.7 0.1-3.2-2-2.9-4q-0.1 2-0.3 4-1.3-3.1-2.6-6.2-2.6 5.1-5.1 10.2c-1.7-0.9-2.8-3.1-2.6-5.3q-0.6 3.5-1.1 7c-1.6-1.8-2.7-4.3-3-6.9q-0.4 1.6-0.9 3.2c-0.7-0.5-1.2-1.4-1.3-2.3q-0.8 2.7-1.7 5.5-1.2-2.3-2.4-4.5c-0.1 2.1-0.8 4.1-2.1 5.5q-1.4-2.5-2.8-5c-0.8 3.1-1.9 6-3.3 8.8-1.7-2.2-2.9-4.8-3.6-7.7-0.7 2.8-1.8 5.3-3.3 7.5q-1.1-2-2.2-4c-0.3 2.3-0.9 4.5-1.9 6.4-2.4-2.3-4-5.6-4.5-9.2-1.2 1.3-2.2 3-2.9 4.8-1.4-1-2.5-2.6-3-4.4q-1.1 2.7-2.1 5.4c-1.4-0.7-2.6-2.1-3.3-3.7-0.6 2.7-1.9 5.3-3.7 7.2-1.3-1.9-2.2-4.1-2.7-6.5q-1.1 2.2-2.3 4.4-1-1.1-2-2.3c0.2 1.2-1 2.4-1.7 3.4q-1.4-2.3-2.9-4.7c-0.7 2.3-1.7 4.4-2.8 6.4-1-1.1-1.7-2.6-1.9-4.2q-0.7 1.2-1.4 2.4-1-2-2.1-4.1c0.7 1.3-1.1 2.8-2.3 2-1.1-0.7-1.4-2.4-1.6-3.9q-0.7 2.7-1.6 5.4c-1.1-1.3-1.8-2.9-2-4.6q-0.4 3.6-0.9 7.2c-1.5-1.6-2.4-3.9-2.6-6.2q-0.7 2.9-1.4 5.8c-0.9-1.5-1.6-3.2-2-5-0.1 2.4-0.8 4.8-2.1 6.6q-1.1-2.8-2.2-5.6c0.4 1.7 0.1 3.6-0.7 5.2-1-1.2-1.7-2.7-2.1-4.2q-1.3 1.7-2.5 3.5-1.1-1.9-2.2-3.8c0.2 1.9-0.2 3.9-1.1 5.5-1.2-1.5-2.2-3.3-2.8-5.2q-1.2 1.8-2.4 3.6-1.5-2-2.9-3.9c0.2 2-0.5 4.1-1.6 5.6-1.1-1.2-1.8-2.8-2.1-4.5-0.7 1.3-1.1 2.8-1.3 4.3q-1.1-1.7-2.2-3.3c-0.3 1.2-1 2.1-1.4 3.3-1.1-1.2-2-2.8-2.4-4.6-1.7 0.4-2.1 2.8-2.6 4.7-0.4 1.9-2.4 3.9-3.5 2.5-0.5-0.6-0.5-1.6-0.9-2.2-0.7-1.1-2.2-1-3-0.2-0.9 0.9-1.3 2.2-1.8 3.4-1.4-0.2-2.7-1.8-2.8-3.6-0.9 0.7-1.5 1.7-2 2.9-1.1-0.7-1.9-2.1-2.2-3.6 0.1 2.2-0.3 4.4-1.3 6.3-1.6-2.2-2.9-4.7-3.8-7.4q-0.7 2.3-1.4 4.6c-1.4-0.4-2.5-1.7-2.8-3.4q-0.9 2.1-1.8 4.3-1.7-2.8-3.5-5.5c-0.2 2.8-1.4 5.6-3.1 7.6-1.4-1.3-2.6-3-3.4-4.8q-1.7 2.2-3.4 4.4-1.2-2.2-2.4-4.4c-0.2 2.3-0.9 4.5-2.1 6.3q-1.3-2.6-2.6-5.2c-0.2 1-0.7 1.8-1.3 2.3q-1.3-2.5-2.7-5-1.1 2.5-2.2 5-1-2.2-2.1-4.3c0.1 2.4-0.8 4.9-2.4 6.6q-1.4-2.1-2.8-4.2c1.1 1.7-0.6 4.4-2.4 4.2-1.7-0.3-2.9-2.7-2.5-4.8q-1.2 2.3-2.3 4.6-1.1-1.8-2.1-3.7c-0.1 1.8 0 1.3-0.1 3.1q-2.3-4.5-4.6-8.9c-0.9 2.7-2.2 5.3-3.9 7.5q-1.1-2.2-2.2-4.4c-0.1 1.9-0.7 3.8-1.6 5.3-1.2-1.1-2.2-2.6-2.9-4.2q-1 2.5-1.9 5.1c-1.5-0.7-2.6-2.3-2.8-4.2 0 1.2-0.6 2.4-1.5 3.1-0.8-1.5-1.4-3.2-1.7-4.9 0.2 2-0.2 4.2-1.1 6q-1.6-3.6-3.3-7.2c-0.3 2.5-0.9 4.9-1.8 7.2-1.1-1.4-1.9-3.2-2.3-5.1q-0.8 2.9-1.5 5.9c-1.2-1.3-2.2-3-2.8-4.8q-1 2-1.9 4c-1-0.4-1.7-1.4-2-2.5 0.1 1.2-0.3 2.4-1 3.2q-1.4-2.1-2.8-4.2c-0.1 1-0.5 2-1.2 2.6q-1-1.3-1.9-2.6c0.2 1.6-0.1 3.2-0.8 4.5-1.1-0.7-2.1-2-2.6-3.4-0.4 1.9-1.2 3.7-2.3 5.2-1.2-1.2-2.1-2.8-2.6-4.5q-0.2 1.8-0.4 3.5c-1.1-0.8-2.1-2-2.8-3.5 0.1 2.1-0.8 4.1-2.2 5.3q-0.6-1.7-1.2-3.4c-0.4 1-1 1.9-1.9 2.5q-0.7-2.1-1.5-4.1-1 2.5-2 5c-1-0.8-1.7-1.9-2.2-3.3q-0.8 2.1-1.5 4.2c-1.3-0.8-2.3-2.4-2.7-4.1-1 1.1-1.7 2.7-2 4.3-1.8-0.2-3.4-2.1-3.4-4.3q-1.2 2.2-2.4 4.4c-1.3-0.6-2.2-2-2.5-3.5q-1.1 2.2-2.2 4.5-1.5-1.9-2.9-3.8c0 1.8-0.9 3.6-2.3 4.4q-0.7-2.2-1.5-4.4c0 1.8-1.2 3.6-1.7 5.4-1.5-1.4-2.6-3.3-3.3-5.5q-0.7 1.8-1.5 3.6c-1.1-0.4-1.7-2-1.3-3.3q-0.9 2-1.8 4c-0.9-1.1-1.6-2.5-1.9-4-0.2 1.3-0.8 2.5-1.6 3.4-1.1-1.3-2-2.8-2.6-4.4q-0.7 3.4-1.4 6.8-1.1-2.4-2.2-4.9-0.5 2-1 4-0.5-1.2-1.1-2.3c-0.6 1.3-1 2.8-1.2 4.4-0.9-0.8-1.7-2-2-3.3q-0.7 1.6-1.4 3.2c-0.8-0.9-1.4-2-1.7-3.3-0.2 1.3-0.7 2.4-1.4 3.3-0.5-0.9-0.9-2.1-1-3.3q-0.7 2.4-1.4 4.7-1.4-2.6-2.8-5.2c0 1.7-0.7 3.3-1.9 4.2q-1.1-1.9-2.2-3.7c-0.3 1.7-1.1 3.3-2.3 4.3q-1.1-2.2-2.2-4.5c0.2 2.1-0.5 4.2-1.7 5.6-1.1-1.9-1.9-4-2.3-6.3q-1 3-2 5.9c-1.3-1.6-2-3.7-2.1-5.9 0 2.3-0.6 4.5-1.8 6.3-1.2-1.5-1.9-3.5-1.9-5.6q-0.8 2.8-1.5 5.7-1.5-2.7-3-5.3c-0.7 1.4-1 3.1-0.8 4.7-1-1.7-2.5-3.6-3.9-4.9-1.2-1.2-2.9-1.4-4.3-0.5-0.6-0.4-0.9-1.3-0.8-2.1q-1.2 1.7-2.4 3.4-1.2-1.2-2.5-2.5c-0.7 0.9-1.3 2-1.5 3.2-0.8 0.1-1.7-0.7-1.9-1.7-0.5 1.5-1.3 2.8-2.5 3.7-1.1-0.4-1.8-2.1-1.5-3.5q-0.4 1.5-0.8 3.1-0.8-1.5-1.6-3-0.8 2.1-1.6 4.2c-1.2-0.4-2.1-1.8-2.2-3.3 0 1.4-0.3 2.9-1 4.2q-1.4-1.7-2.8-3.4c0.9 1.6-1.3 3.7-2.8 2.8-1.5-0.8-2.2-2.9-2.6-4.8q-1.6 2.7-3.3 5.4c-0.9-0.8-1.6-2-1.8-3.4-0.1 1.1-0.8 2-1.6 2.4q-0.9-1.6-1.7-3.2c-0.5 0.9-0.7 1.9-0.7 3-0.6-0.8-1.4 0.1-1.9-0.7q-1.7 1-3.3 1.9c0-1.4-0.2-2.9-0.7-4.3q-1.3 2.2-2.6 4.3-1.3-1.3-2.6-2.7c0.1 1.9-1.2 3.9-2.8 3.9-1.6 0.1-3-2.2-2.3-3.9q-1.8 2.4-3.6 4.7-0.7-1.8-1.4-3.7c0.1 1.4-1.1 2.6-2.3 2.5-1.2-0.2-2-1.8-1.7-3.1q-1.3 2.3-2.5 4.7-0.8-2.4-1.5-4.8c-0.4 2.3-1.4 4.4-2.8 6-0.8-1.8-1.2-3.9-1-6-0.7 2.7-1.8 5.2-3.2 7.4q-1-3.8-2-7.7c0.1 3.1-0.5 6.3-1.7 9-1.2-3.1-1.8-6.5-1.8-9.9q-2.2 7-4.5 13.9-3.9 0.3-7.7 0.5l-3.9 54h1044.7v-186.1c-117.9 27.6-238 50.5-359.2 69z"/>
				<path id="&lt;Path&gt;" class="s0" d="m202.3 443q-0.1-0.4-0.2-0.8 0.1 0.4 0.2 0.8z"/>
				<path id="&lt;Path&gt;" class="s0" d="m477.8 423.3q0-0.3-0.2-0.5 0.1 0.3 0.2 0.5z"/>
				<path id="&lt;Path&gt;" class="s0" d="m791.3 395.1c-7.5-37.7-3.2-78.6 11.9-112.9-8.5 21.5-13.1 45.2-13.5 69 1.5-22.1 7.3-43.7 16.8-62.7 2-3.9 4.2-7.8 7.1-10.8-10.8 22.4-16.8 48-17.3 73.8 0.5-9.4 2.1-18.7 4.7-27.6-1.1 7.5-1.6 15.1-1.6 22.8 0.2-9.8 2.3-19.5 6.3-28.1-3.1 10.2-3.6 21.3-2.7 32 0.9 10.8 3.3 21.3 5.9 31.6-2.5-16-3.1-32.5-1.7-48.7-0.9 8.8-0.2 17.7 1.9 26.2-0.5-3.8-0.4-7.7 0.3-11.4 0 3.8 1 7.5 2.8 10.6q0.6-7.8 1.2-15.5c-0.1 14.5 3.6 28.9 10.4 40.8l-16.2 17.6z"/>
				<path id="&lt;Path&gt;" class="s0" d="m705.9 410.5c-5.1-16.8-6.4-35.1-3.7-52.6 1.4-9.3 3.9-18.4 6.4-27.4-10 24.5-13.2 52.9-8.7 79.6-5.2-17.2-5.7-36.2-1.6-53.8-2.7 10-3.8 20.6-4.2 31.2-0.1 3.3-0.1 6.7-1 9.8-1.1-8.3-1.2-16.8-0.1-25.2-2.1 8.4-2.9 17.2-3.6 25.9-0.7-4.1-1.1-8.2-1-12.3q-0.8 6.4-1.6 12.9-0.3-3.4-0.6-6.8-0.6 4.6-1.9 9.1c-1.7-6.8-7.5-11.7-13.4-11.5 3.9 2.8 7.3 6.8 9.7 11.5-1.8-1.9-4.1-3.2-6.5-3.7 1.3 0.7 2.2 2.2 2.6 3.8-1.4-0.9-3-1.5-4.5-1.8 2.4 1.9 3.8 5.6 3.3 9 0 0 10.7 9.5 11.5 9.5 0.9 0 12.6-0.2 13.7 0 1 0.2 5.2-7.2 5.2-7.2z"/>
				<path id="&lt;Path&gt;" class="s0" d="m704.2 404.4c-1.8-7.1-5.1-13.6-9.5-19 3 1.3 5.7 3.3 8 5.8q-5-8.4-10-16.8 8.6 9.5 17.2 19c-3.7-5.3-7-11-9.8-17.1 5.2 5.2 10 10.9 14.4 17.2-2-3.9-3.5-8.1-4.5-12.5q3.9 5.2 7.7 10.5c-4.5-11.8-6.1-25.1-4.6-37.9 1.9 12.7 5.4 25 10.3 36.5-1.8-7.7-2.5-15.7-1.9-23.7 0.8 7.9 2.8 15.5 5.9 22.6-1.3-12.4 0.2-25.1 4.1-36.6-1.4 13.5 0 27.4 4.3 40-0.4-10.4 1.8-20.8 6.2-29.8-1 7.7-0.9 15.7 0.1 23.4 0.6-16.9 8.5-33.3 20.6-42.4-9.9 11.9-15.7 28.5-16 45.2 2.6-10.7 7.6-20.6 14.4-28.3-3.6 6.4-5.5 14.1-5.3 21.8 2.5-7.3 6.5-13.8 11.4-19-1.5 5.9-2.3 12.1-2.1 18.3 4.4-14.1 0.4-29.7-3.7-43.9 6.5 13.4 9.8 29 9.4 44.5 0.5-10.5-0.1-21-1.8-31.3 4.1 9.1 6.2 19.5 6 29.9 1-5 1.4-10.2 1-15.3 2.3 4.6 3.9 9.7 4.7 14.9q-0.9-8.8-1.8-17.7c2.5 4.4 4.2 9.4 5 14.6-2.1-12-7-23.2-13.9-32.2 8.3 9.2 14.6 20.9 18.2 33.7-4-17.3-12.5-32.5-20.8-47.3 11.5 12 20.6 27.4 26.1 44.4q-2.9-10.4-5.8-20.9c5.6 5 10.3 11.5 13.4 19-2.3-7.7-5.1-15.2-8.4-22.4 5.9 6.4 10.4 14.6 13 23.5q-2.6-9.9-5.2-19.8c4.5 6.9 8.4 14.4 11.5 22.4q-2.7-9.4-5.4-18.8c3 4.2 5.5 8.8 7.5 13.8q-1.5-5-2.9-10 3 4.5 6.1 9c-0.8-3.4 0-4.9-0.8-8.2q3 3.6 6 7.2-0.5-3.4-0.9-6.9c0.2 3 2.2 5.8 4.7 6.5 2.5 0.6 5.3-1 6.5-3.8 0.5-1.2 1-2.9 2.1-3.1 0.8-0.1 1.5 0.5 2 1.1q2.8 2.7 5.6 5.4l13 19.8-148.2 26.2z"/>
				<path id="&lt;Path&gt;" class="s0" d="m930.1-59.7q0.7-9.8 1.4-19.5 1.4 8.2 2.7 16.4c1.2-1.9 2.4-4 4.2-5.1 1.7-1.1 4.2-1 5.5 0.9-6.7 5.4-10.2 15.7-8.8 25.1 0.8-1.3 2.1-2.1 3.5-2.3 0.2-4.3 2.1-8.5 5.1-11.1q-0.2 2.5-0.3 4.9c2.4-2.1 5-3.8 7.7-5.1 1.1 2.3 0.4 5.5-1.5 6.9 2.4 0.8 4.4 3.2 5.1 6-3.1-2.9-8.2-2.2-10.6 1.5 2.4 0.6 4.7 1.9 6.6 3.8-0.5 1.9-2.5 2.9-4 1.9q-0.3 2.1-0.7 4.2c-1.7 0.9-3.8-0.6-4-2.8-2-1-4.5 0.6-5.4 3-1 2.3-0.9 5-0.8 7.6q0.5 6.9 1.8 13.7c7.2-4 12.7-12.3 14.3-21.6q2.3 1.3 4.5 2.7c2.5-3.4 6.3-5.2 10-5-0.5 2.8-1.5 5.3-3.1 7.4 0.8 1.2 2.6 0.3 3.5 1.3 1.3 1.4-0.4 3.7-1.9 4.9-1.4 1.1-2.6 4.2-0.9 4.8 1-1.6 3.4-0.1 3.6 1.9 0.2 2-0.9 3.8-1.9 5.3-2 3-6.2 5.6-7.9 2.4q-0.9 2.8-1.8 5.7c2.7-0.6 5.6-0.1 8.2 1.3-2.2 3.5-4.5 7.2-7.8 8.9-5 2.5-10.9 0.1-16 2.2 3 2.6 6.9 3.6 10.5 2.9 0.9-0.1 2-0.4 2.9-0.1 1 0.3 1.8 1.2 2.9 1.3 2.5 0.1 4.6-5.1 6.6-3.2q0.4 3.4 0.8 6.8 2-3 4-6.1 5.9 4.9 11.8 9.8c-3.4 3.5-8.4 4.6-12.6 2.8 0.6 2.2-1.2 4.8-3.1 4.6-1.9-0.3-3.2-2.5-4.6-4-1.5-1.5-4.5-1.7-4.8 0.6 0.6 1.2 0.5 2.8-0.2 3.8q-4.1-2.3-8.1-4.7c1 2-1.7 4.1-3.4 3-1.6-1.1-2.2-3.6-2.8-5.7-0.6-2.2-1.7-4.6-3.6-4.8-0.6 8.7 8 16.1 14.7 12.8 0.1 1.9-0.5 3.8-1.6 5.2 1.6 2.2 4.3 3.2 6.6 2.5 3.8 3.8 9.3 1.3 11.8-3.7-0.6 1.5-0.4 3.4 0.4 4.8q3.3-1.1 6.6-2.3c-0.5 1.3-0.7 2.8-0.4 4.2q6.2-0.2 12.4-0.4c0.8 0 2 1.2 1.2 1.6 1.7-0.1 3.1-1.6 4.7-2.3 1.6-0.7 4 0 4.1 2 0 1.7-1.7 2.7-3.1 2.9-1.4 0.1-3-0.2-4.2 0.8 0.3 1.8 0.9 3.5 1.9 4.9q-2 0.7-4.2 0.9c1.4 1.6 0 5-1.9 4.6-1.3-0.3-2.1-1.9-3-3-0.9-1.1-2.6-1.9-3.4-0.6-1.8 2.7 4.8 6.3 2.6 8.7q-5-3.3-10.1-6.5c-1.5 2.5-0.3 7.3-2.8 7.9-1.4 0.4-2.5-1.2-3.5-2.4-1-1.3-2.8-2.3-3.7-0.9 0.8 1.1-0.9 2.6-2 2-1.2-0.5-1.8-1.9-2.9-2.6-1-0.7-2.9 0-2.6 1.4 0.1 0.3 0.2 0.5 0.3 0.7 3.5 5.7 9.3 9.4 15.2 9.7 6 0.4 12-2.7 15.9-8q-0.5 3.1-1 6.2c0.9 0.7 2.3 0.4 2.9-0.8q-0.1 1.6-0.2 3.2c2.4-2.7 5.2-4.8 8.1-6.3q0.1 1.9 0.1 3.8 3.6 0.4 7.3 0.9-3.2 1.5-6.4 3.1c0.8 1.2 1.3 2.8 1.2 4.4-1.4 1.6-3.7 1.8-5.3 0.6-0.7-0.6-1.3-1.4-2.2-1.5-1.1-0.1-2 1.4-2.1 2.7 0 1.4 0.6 2.7 1.2 3.9q-1.5-0.3-3-0.6 0.2 2.2 0.4 4.4-1.4-0.5-2.9-1.1c-0.4 5.4-5.6 9.5-10 7.8q-0.4-2.4-0.7-4.8c-1.4 3.6-6.6 3.6-7.9 0-0.1 2.4-2.5 3.9-4.5 3.4-2-0.5-3.5-2.3-5-3.9q-1.2 1.2-2.4 2.4c-0.8-1.2-1.9-2.1-3.1-2.5 8.3 9.4 20.7 13.5 31.9 10.5 2.1-0.6 3-1.8 5.1-1.6q-1.2 4.1-2.5 8.3 7-1.4 14-2.8-0.4 1.5-0.7 3c3.5-1.5 7.5-1 10.7 1.2q-1.3 0.2-2.6 0.5c1.1-0.6 2.2 1 2.1 2.4-0.2 1.3-1.1 2.4-2 3.3q-2.9 3.1-5.9 6.1c1 0.2 1.9 0.7 2.6 1.5-1.1-0.3-2.3 0-3.2 0.8q-0.1 2.4-0.2 4.8-5.6 0.3-11.2-0.3c-0.8 1.5-0.8 3.6 0 5.2-2.2 1.2-4.6-3.6-6.6-1.9-0.7 0.6-0.8 1.8-1.5 2.4-0.6 0.4-1.3 0.4-1.9 0.4-4.2-0.3-8.7-0.6-11.9-3.9 0.2 3.5 2.5 6.5 5 8.4 7.3 5.5 17.5 4.5 24-2.2q-0.1 2.2-0.3 4.4c2.5 0 4.9-0.4 7.3-1.2-1.4 1.2-2.5 2.6-3.5 4.3q4.5-0.9 9-1.7c0.7-0.1 1.5-0.2 2 0.3 0.5 0.6 0.2 1.9-0.5 1.7 1.5-0.8 3.3 1.5 2.5 3.2 0.9-0.6 2.1-1 2.7-0.2 0.7 0.8-1 2.3-1.1 1.2 1.8-0.3 3.6 0.8 4.5 2.6-2.3 0.2-4.4 2-5.5 4.5q-1.5 0.2-3 0.4c-0.7 3.4-3.5 5.6-6.3 6.4-2.9 0.7-5.8 0.1-8.7-0.4q2.4 3.2 4.9 6.4c-4.5 2.9-9.7 5.8-14.3 3.5 0.5 1.1 0.7 2.5 0.5 3.8q-1.2 0.1-2.4 0.2c1.6 1.4 3.6 2.1 5.7 2 8.8-0.7 17.7 0.2 26.6-0.8q-1.5 2-3 4 1.3 1 2.5 2c-1.6 1.5-4 1.8-5.9 0.9q1.6 3.6 3.2 7.2-3.4-0.3-6.8-0.7c-0.5 3.7 2.7 6.9 5.9 7.2 3.1 0.2 6.1-1.5 9-3 2.9-1.5 6.2-2.7 9.2-1.5q-1.3 2.3-2.5 4.6c1.1 0.7 2.1 1.9 2.5 3.4-1.6 0.9-2.4 3.3-1.8 5.2-1.2 3.4-4.9 5-7.7 3.6 0.6-0.3 1.1 0.9 0.8 1.5-0.4 0.7-1.1 0.8-1.8 0.9-3 0.4-6.1 0.4-9.1 0.1-2.1 1.3-4.7 1.5-6.9 0.5 6.5 7.8 17.6 9.4 25.5 3.7-0.2 1.9 0.1 3.9 1 5.6 4.8 0.8 9.8 0.3 14.5-1.6-1 7.5-7.7 13.1-13.9 11.9q2.7 1.8 5.5 3.5c-2.5-0.5-5.2-0.4-7.7 0.4q1.3 2 2.6 4.1c-4.9-1.9-10.5-0.5-14.4 3.5 6.1 5.1 14.1 6.9 21.4 5-0.8 0.8-1.4 1.9-1.7 3q11.6 0.9 23.3 0.2c-3.5 2.8-7.6 4.6-11.8 5.1 0.9 2 3.1 3.4 5 3.4-1 0.4-1.1 2.4-0.3 3.3 0.8 1 2 1.2 3.1 1.4-4.3 0.9-7.8 4.2-11.7 6.4-3.9 2.2-8.9 3.1-12.1-0.3q1.4 3 2.8 6.1c-2.5-0.7-5.4 0.7-6.8 3.3-1.4-1.7-3.1-3-5.1-3.8 0.6 2.1 0.6 4.4 0.1 6.4-2.6-2.3-4.9-5-6.8-8.2q-0.1 3.1-0.2 6.1-9.3-2.5-18.6-5.1c-0.9-0.2-2.2-0.1-2.2 0.9q-2-0.3-4.1-0.7c10.3 14.3 28.4 19.8 43.2 13.1q-0.7 2.2-1.4 4.4c7.1-0.3 14.2 0.1 21.2 1.2q-2 1.5-4 3c3.1 0.8 6 2.6 8.3 5q-7.8 0.4-15.6-0.1 3.5 3.3 7 6.6-4.1-1.6-8.2-3.1c0.6 3.1-3.1 4.7-5.8 4.5-2.7-0.2-6.3-0.1-6.9 3 1.3 1.6 2.1 3.9 2.2 6.2-1.7-2.9-4.3-5.1-7.2-6q0 1.9-0.1 3.7c-2.7 1.6-6.2 0.9-8.4-1.4q-0.4 3.4-0.8 6.8c-2.1-2.5-4.7-4.4-7.6-5.6q-0.1 3.5-0.3 7-3.7-3.6-7.4-7.2c-0.2 1.5-0.6 2.9-1.3 4.1q-3.9-3.1-7.8-6.1c8.9 10 20.2 16.8 32.3 19.5 8.4 1.9 16.9-0.5 24.9-4.2-2 1.9-3.5 4.5-4.3 7.4q5.6-1.2 11.1-2.4-6.3 4.5-13.1 7.8c5 0.6 9.9 1.8 14.6 3.8q-3.9 0.7-7.7 1.4c1.7 1.3 3.3 2.9 4.7 4.8-2.6 0.8-5.2 0.8-7.8 0.1q1.3 1.6 2.6 3.3-2.8 0.1-5.6 0.2c2.2 0.2 4.3 1.6 5.6 3.7q-4.7 0.8-9.4 1.6 1.8 1.5 3.6 3.1-3.6-0.7-7.2-1.3 1.2 1.5 2.5 3.1-4.1 0.9-8.1 1.8c2.8 6.1 9.5 7.5 15.4 8.2q8.4 1 16.7 1.9-6.2 1.9-12.4 3.7 1.2 1.4 2.3 2.8-6.3-2.1-12.6-4.3 1.7 2.4 3.5 4.8-1.9-0.1-3.8-0.2 1.5 3 3 6.1c-3.6 0.6-7.5-0.2-10.8-2.1 1.1 0.6 0.5 2.8-0.6 3.2-1.1 0.4-2.3-0.3-3.4-0.9q-4.2-2.7-8.5-5.4c1 2.4 1.6 5.6 0.1 7.7-1.5 2-5.3 0.2-4.3-2.2-0.5 1.8-1.4 3.5-2.6 4.9q-1.1-2.3-2.1-4.5-1.7 1.8-3.4 3.6c-1.3-5-5.4-8.7-9.8-9 1.4 1.3 2.1 3.5 1.8 5.5q-3-2.5-6-5.1-0.4 5.6-0.7 11.2c-3.5-3.8-9.2-4.4-13.2-1.5q-1.1-1.6-2.2-3.2c0.2 1.3 0.4 2.9-0.4 3.8-0.7 0.9-2.5-0.3-1.8-1.3-1.4-1.2-2.9 0.8-4.3-0.4-0.3-0.2-0.6-0.4-0.9-0.5-0.5-0.2-1.1 0.2-1.7 0.4-2.2 0.9-4.6-0.4-6.1-2.5-1.5-2-2.3-4.7-3.1-7.2q0.1 1.9-0.2 3.8-2-3.1-4-6.1c-0.3-0.5-0.6-0.9-1.1-1-1.1-0.3-1.5 1.7-1.4 3.1 0.5 6.5 1.7 13 3.5 19.2q-11.9 0.1-23.8 0.2c-0.4 0-0.7 0-1-0.2-0.9-0.6-0.5-2.2-0.1-3.3 2.5-6.4 3.6-13.6 2.9-20.7-0.1-1.5-0.1-3.4 1.1-4-2.4-0.5-4-1.4-6.1-2.8q-0.1 3.4-0.2 6.7c-0.4-1.4-1.4-2.7-2.6-3.2-1 3.7-3.5 6.8-6.6 8.2q-0.1-2.8-0.2-5.5-3.6 5.9-7.2 11.8-2.4-1.5-4.8-3c0.4 3.3-2.4 6.5-5.2 5.9 0.3 1.5-0.1 3.1-0.9 4.4q-1.2-2.4-2.4-4.7c-0.4 1.8-1.8 3.3-3.4 3.6q-0.6-2.8-1.2-5.6-4.3 3.4-8.7 6.8-0.3-4.9-0.5-9.8c-3.1 3.4-6.5 6.4-10.1 9 0.3-2 0.1-4.1-0.6-5.9-1 2.5-3.2 4.2-5.6 4.3q-0.3-1.9-0.7-3.8-1.7 0.8-3.4 1.6c-0.2-3 0.4-6.1 1.8-8.7q-4.1 1.6-8.2 3.2 0.9-2.9 1.8-5.7-4.1 0-8.1 0c5-2.4 9.7-5.3 14.2-8.8q-3.1-0.1-6.2-0.2-1.4 2.5-2.8 4.9c-2-4.1-7.4-4.9-10.3-1.6-0.6-2-0.6-4.3 0-6.3q-1.9 2.5-3.8 5c-0.4-1-0.6-2.1-0.5-3.2q-1.5 1.1-3 2.3c0.7-0.7 0.4-2.3-0.4-2.9-0.9-0.6-1.9-0.6-2.9-0.5q1.7-3 3.4-6.1c-4.5 1.9-9.5 2.3-14.1 1.1q5.3-4.1 10.7-8.3-2.6-0.9-5.1-1.8c2.6 0.4 5.3 0.1 7.8-0.9q-0.7-1.7-1.4-3.4c2.2 0.7 4.5 0.6 6.6-0.1q-0.3-1.7-0.5-3.4c10.2 1.9 20.6 2 30.8 0.4q0-2.3 0-4.5-4.4 2.5-8.8 5 2-5.4 4-10.9c-4.8 2.9-9 7-12.3 12.1q0.3-5.4 0.6-10.9c-2.3 1.9-4.1 4.9-6.7 5.8-2.7 1-6.4-2.4-4.7-5.1q-2.8 0.4-5.5 0.8c0.5-2.8 1.6-5.4 3.1-7.6q-7.3-0.1-14.6-0.1 3.6-2 7.3-3.9-1.1-2.9-2.1-5.8 13.5-1.9 27-3.7c1.1-0.2 2.3-2.3 1.2-2.3-2.4 0-5.4 0.6-7.7 1.6 1.3-0.6 2.2-2 2.5-3.6q-4.6 1.3-9.2 2.6 2-2.5 4-5-3.6-0.1-7.2-0.1 1.8-1.2 3.5-2.4-2.5-0.2-5.1-0.4 3.5-1.8 7-3.7c-4.1 1-8.4 0.9-12.5 0 4.3-3.1 9.3-4.5 14.2-4.2-0.7-1.6-0.7-3.6 0.1-5.1 1 1.3 1.9 2.7 3.3 3.4 1.4 0.6 3.2 0.2 3.8-1.4 0.8 1.8 3 2.4 4.4 1.3 4.9 2 10.8 0.5 14.5-3.8-2.9 1.1-6.4-0.1-8.3-3q-2.3 2.1-4.7 4.2-0.3-1.5-0.7-3c-1.4 3-5.7 3-7.2 0-0.6 0.9-1.5 1.5-2.4 1.8-1.1-2.5-2.5-4.8-4.1-6.8-0.9 3.6-5.4 3.6-8 1.4-2.6-2.2-4.4-5.7-7.3-7.1q1.8-2.4 3.5-4.8c-4.6-1-9.1-2.8-13.4-5.2 4.5-0.5 9-0.4 13.5 0.2-0.3-2.5-1.6-4.7-3.5-5.8q6.4 1.1 12.8 2.2-0.2-1.6-0.4-3.3c3.3-1.7 6.9 0.8 10.4 1.8 7.7 2.3 15.4-2.5 23-5.5 1-0.4 2-0.8 2.8-1.7 0.7-0.9 1.1-2.4 0.4-3.4-0.7-0.9-2.3-0.5-2.3 0.8-2.6 0.9-3.4 0.8-6 1.8q1.5-5 3-10-2.8 3.1-5.6 6.1-0.6-2.4-1.2-4.8c-1.2 1-2.8 1.4-4.3 1 0.9-2 2-3.7 3.3-5.3q-5.2 1.4-10.4 2.9 0-1.8-0.1-3.6-2.3 1.2-4.5 2.4 0.4-2.7 0.9-5.4-3.7-0.2-7.4-0.4c1.5-2.8 4.4-4.5 7.2-4-4.5-0.4-8.9-2.7-12.2-6.4 7 0.1 13.9 2.1 20.2 5.7-0.5-2.2-1.4-4.3-2.6-6 12.3 6.3 26.4-0.5 38.6-7.2-2.9-0.3-5.6-2-7.6-4.5q-1.4 1.4-2.9 2.7c-1-1.9-3.6-2.1-4.8-0.5 0.3-1.8 0.4-3.8 0.2-5.7-1.9 1.4-3.9 2.5-6.1 3.1q-0.2-2.1-0.4-4.2c-1.3 2-3.2 3.7-5.3 3.6-2.1 0-4.1-2.7-3.3-5q-3.5 1-7 2.1 0.6-2.3 1.2-4.7-3.1 1.3-6.1 2.7c0.4-1.2 0.5-2.5 0.3-3.8q-1.8 0.6-3.5 1.1c0.8-0.9 1-2.4 0.5-3.6q-2.4 1.5-4.8 3c1.1-0.3 0.9-2.5-0.2-2.9-1-0.5-2.2 0.1-3.1 0.7 2.5-1 4.9-2.7 6.8-5q-4.2-2.2-8.5-4.3c7.4-2.4 14.9-4 22.5-5 8.3-1.1 16.7-1.4 25-1.7q-3.6-3.6-7.3-7.2c8.6-1.7 17-5.4 24.4-10.8-2.6-0.2-5.2-1-7.5-2.2-1.1 2.3-4.1 4.7-5 2.3q-1.3 2-2.6 3.9-1.4-2.5-2.8-4.9c-2.1 4.1-6.2 6.7-10.2 6.5-1.6-0.1-3.5-2.4-2.1-3.3q-1.8 1.2-3.6 2.3-0.1-2.2-0.2-4.4c-2.9 0.7-5.9 0.7-8.8 0.1q0.9-1.3 1.8-2.5-2.2-0.1-4.4-0.2 1.3-1.4 2.6-2.8c-3.8-1.2-7.3-3.4-10.2-6.5 4.2 1.6 9.2-0.5 11.6-4.9 11.7-1.9 23.1-6.1 33.6-12.3-2.9 0.2-5.8-0.4-8.5-1.6 2.4 0 4.8-0.8 6.9-2.3-1.7 0.1-3.3-1.8-3.3-3.9q-7.2 1.6-14.4 3.3c-0.6 0.6-2.6-0.4-2.2-1.2q-1.8 0.9-3.5 1.7 0.6-2.7 1.3-5.4c-2.3 1.3-5.2 1-7.3-0.8 1.4-1.9 0.6-5-1.1-6.4-1.6-1.5-3.8-1.7-5.8-1.9q4.3 0.1 8.6 0.2-0.4-2.4-0.8-4.8c6.2 3.7 13.8 3.9 20.1 0.4q-3.9-0.9-7.7-1.9 1-1.4 2-2.9-3.1 0.8-6.2 1.6c0.6-1.5 0.7-3.2 0.4-4.8q-2.8 0.3-5.5 0.7c0.9-2.6-1.4-5-3.3-6.5-1.9-1.5-4-4.1-2.9-6.5q5 0.2 10.1 0.5 0.7-2.6 1.4-5.2c0.8 3.1 3.5 5 6.2 5.5 2.7 0.4 5.5-0.4 8.1-1.1q6.4-1.9 12.8-3.8c-1.7-0.1-3.5-0.3-5-1.4-1.4-1.1-2.3-3.4-1.4-5.2-1.9 2.1-5.1-0.2-6.2-3-1.1-2.8-1.3-6.2-3.2-8.3q-2.9 2.5-5.7 5c0.6-1.5 0.5-3.4-0.2-4.9-1.7 0.1-3.4-0.1-5-0.5 1.2-0.4 0-2.5-1.1-3q-6.5-3.1-13-6.2c2.3 0.9 4.8 1.7 7.1 0.7 2.2-1.1 3.7-4.8 2.1-7 3.4 2.8 7.6 4.3 11.7 4q-1.1-4.9-2.3-9.9c4.1 1.3 8.5 1.4 12.6 0.4q-0.6-1.5-1.1-2.9c-1.7-0.3-3.9-2.3-5.6-2.5q0.8-1.5 1.5-2.9-3.4-0.1-6.7-0.3c1.3-0.5 0-2.9-1.4-3.2-1.4-0.2-3.4-0.6-3.3-2.3 1.6-0.4 1.4-3.8-0.2-4 1.3-2.3 4.3-1.5 6.6-1.2 2.3 0.4 5.6-1.5 4.7-4.1 2.9 2.1 6.3 3.2 9.7 3.1q-0.5-2.4-0.9-4.8c2.1 3 4.5 6.1 7.7 6.8 4.5 0.9 8.5-3.2 11.7-7q6.4-7.5 12.8-14.9-8.1 4.5-16.1 9c-0.8 0.4-1.7 0.8-2.3 0.1-0.5-0.7 0.9-1.9 1-0.9-1.8 3-4.6 5-7.6 5.5q1.3-1.5 2.6-3-3.2 0.3-6.4 0.6 3.4-3.8 6.8-7.7-6.5 3.2-12.9 6.3 0.2-2.1 0.4-4.2-1.7 0-3.3 0c1.9-1.7 3.4-4.1 4.2-6.8-3.6 3.6-8.5 5.1-13 4.1 2.3-2.3 4.4-5 6-8-5.1 0.8-10.5-0.1-15.2-2.6q6.2-2.5 12.5-5-1.2-1.6-2.3-3.2c3-2.1 6.8 0.4 9.5 3.1 2.7 2.7 6 5.8 9.4 4.7-1.2-1.2-2.2-2.8-2.7-4.7 7.5 5.8 17 7.7 25.7 5.2q-0.2-2.4-0.5-4.9-3.2 1.3-6.5 2.5 0.7-2.2 1.5-4.4c-2.2 1.6-5.1 1.8-7.4 0.5q2.3-2.2 4.7-4.4c-6.5 0.7-13-1.4-19.3-3.4q4.7-2.5 9.4-4.9-2.6-1.4-5.2-2.8 0.5-1.4 1.1-2.9c-2.7 0.7-5.8-1.4-6.7-4.5 2-0.3 4-1.2 5.7-2.5-2.8-0.7-5.1-3.7-5.4-7 4 4.7 9.3 7.9 14.9 8.9q0.3-2 0.5-4.1 1.7 0.9 3.4 1.7c-0.7-4-2.2-7.9-4.4-11.1 1.8 2.1 3.9 3.7 6.2 4.8-0.1-3.6 0.3-7.2 1.1-10.7q-2.8 0.2-5.5 0.5c2.3-2.3 1.4-6.8 0-9.9-1.4-3.2-3.3-6.7-2.3-10.1q3.7 2.9 7.5 5.9 1.3-3.1 2.5-6.2 2.7 9.1 5.3 18.2c0.1-7.5 0.4-16.4 0.9-23.9z"/>
			</g>
		</g>
	</g>
	<g id="OBJECTS">
	</g>
</svg>