<svg version="1.2" xmlns="http://www.w3.org/2000/svg" viewBox="0 0 1000 500" width="1000" height="500">
	<title>20549624_6308552</title>
	<defs>
		<clipPath clipPathUnits="userSpaceOnUse" id="cp1">
			<path d="m1000 500h-1000v-500h1000z"/>
		</clipPath>
		<linearGradient id="g1" x2="1" gradientUnits="userSpaceOnUse" gradientTransform="matrix(70.123,170.634,-372.133,152.931,824.454,51.76)">
			<stop offset="0" stop-color="#3d1f33"/>
			<stop offset="1" stop-color="#412854"/>
		</linearGradient>
		<linearGradient id="g2" x2="1" gradientUnits="userSpaceOnUse" gradientTransform="matrix(.039,.222,-0.119,.021,599.248,309.65)">
			<stop offset="0" stop-color="#3d1f33"/>
			<stop offset="1" stop-color="#412854"/>
		</linearGradient>
		<linearGradient id="g3" x2="1" gradientUnits="userSpaceOnUse" gradientTransform="matrix(.038,.219,-0.099,.017,611.336,302.79)">
			<stop offset="0" stop-color="#3d1f33"/>
			<stop offset="1" stop-color="#412854"/>
		</linearGradient>
	</defs>
	<style>
		.s0 { fill: url(#g1) } 
		.s1 { fill: url(#g2) } 
		.s2 { fill: url(#g3) } 
	</style>
	<g id="BACKGROUND">
		<g id="&lt;Clip Group&gt;" clip-path="url(#cp1)">
			<g id="Layer 5">
				<path id="&lt;Path&gt;" class="s0" d="m1004.9 151c-11 6.4-21.1-20.4-32.3-14.6-2.6 1.3-4.4 4.1-6.6 6.2-9.2 8.5-32.9-2.4-32.9-2.4l-49.8-11.1-33.8 21.8-10.9-0.3-7.4 5.7-22.6 34.3c0 0-15.9 47.2-33.6 57.2-23.9 13.4-56.1-11.1-76.5 9.4-5.2 5.3-9 13.2-13.7 19q-0.5-0.3-1-0.5c-0.3 0.8-0.8 1.4-1.3 1.9q-0.3-0.5-0.6-1.1c0 0.8-0.4 1.6-0.9 2q-0.6-0.5-1.3-1.1c-0.4 0.9-1 1.7-1.8 2.3q-0.9-0.7-1.6-1.7-0.5 0.7-1 1.5-0.7-0.6-1.3-1.2c-0.4 0.8-1 1.1-1.1 2.1-0.5-0.1-1-0.6-1.3-1.2-0.6 0.2-0.8 1.2-1.1 1.8-0.3 0.7-1.3 0.9-1.3 0.2-0.1 0.8-0.6 1.5-1.2 1.7-0.6 0.2-1.4-0.5-1.3-1.3q-1.5 2.1-3 4.1c-0.1-0.5-0.5-0.9-0.9-0.9 0 1.5-0.8 3-2 3.6q-0.5 1.4-1.2 2.8c0-0.5-0.2-1-0.6-1.2-0.2 1.3-1 2.7-1.5 3.9q-0.3-0.6-0.7-1.1c-0.5 0.2-0.6 1-0.8 1.7-0.1 0.7-0.8 1.4-1.2 0.8q-0.4 1.6-1.3 2.9c-0.5-0.5-0.8-1.3-0.9-2.1-0.5 1-1.1 1.8-1.8 2.5q-0.5-0.7-0.7-1.6-0.4 1.1-0.8 2.3-0.6-1-1.2-2.1c-0.2 0.9-0.4 1.8-1 2.2-0.6 0.4-1.6-0.4-1.2-1.2q-0.6 1.2-1.5 2.1-0.3-1.1-0.7-2.2c0 0.8-0.3 1.7-0.8 2.2-0.5-0.6-1-1.4-1.3-2.2q-0.5 0.9-0.9 1.7-0.4-1-0.8-2c-0.3 1-0.7 2.2-1 3.1-1-0.3-1.8-1.5-1.8-2.8-0.4 0.3-0.7 0.7-0.8 1.2-0.4-0.4-0.6-1-0.5-1.6-0.5 0.6-1.5 0-1.4-0.8-0.4 0.2-0.7 0.6-1 1q-0.3-0.5-0.6-1c-0.5 0.3-0.4 1.4-0.8 1.9-0.5 0.7-1.4 0.4-1.8-0.3-0.4-0.7-0.5-1.6-0.5-2.4q-0.5 0.4-1.1 0.8-0.4-0.6-0.9-1.3c-0.1 0.7-0.7 1.2-1.2 1-0.6-0.1-0.9-0.9-0.8-1.5-0.2 0.5-0.5 1.1-0.9 1.3-0.4 0.3-1.1 0.2-1.2-0.4-0.2 1.1-0.7 2.2-1.5 2.9q-0.5-1.2-1-2.4-0.8 2.1-1.7 4.1c-0.4-0.3-0.7-0.9-0.9-1.5q-0.6 1.3-1.4 2.5-0.5-0.9-0.9-1.8c-0.4 1.4-0.8 2.4-1.2 3.8q-0.5-1.4-1-2.8-0.5 1.6-1 3.3-0.4-1-0.9-2.1c0 0.6 0 1.2-0.4 1.5-0.3 0.3-0.8 0-0.8-0.4q-0.4 1.5-0.8 3.1c-0.4-0.8-0.7-1.7-0.7-2.6-0.5 0.3-0.4 1.4-0.5 2.2-0.1 0.7-1.3 1-1.1 0.2q-0.3 1.4-0.7 2.7c-0.7-0.7-1.1-1.8-1.2-2.9q-0.7 1.7-1.4 3.3c-0.8-0.3-1.3-1.4-1.1-2.4q-0.3 1.2-0.7 2.4c-0.4-0.4-0.6-1-0.6-1.6q-0.5 1.2-1 2.4c-0.5-0.6-0.8-1.5-0.7-2.3-0.5 0.2-0.4 1.3-0.5 2-0.1 0.7-1 0.7-1 0.3q-0.4 1.1-0.7 2.2c0-1-0.9-1.7-1.6-1.2q-0.3-0.8-0.6-1.6-0.5 1.3-1.1 2.7c-0.4-0.2-0.7-0.6-0.9-1.2-0.2 0.9-0.6 1.8-1.2 2.4-0.8-0.9-1.3-2.2-1.4-3.5q-0.4 0.8-0.8 1.6c-0.5-0.5-0.8-1.4-0.8-2.2q-0.6 1-1.1 2c-0.5-0.4-0.8-1.1-0.9-1.9-0.3 1.1-0.7 2.1-1.3 3-0.6-0.8-1.1-1.7-1.3-2.7-0.3 1.1-0.8 2.1-1.6 2.6q-0.5-0.8-0.9-1.6c-0.2 0.9-0.6 1.7-1.1 2.3-0.6-0.5-1-1.2-1.1-1.9q-0.6 1-1.2 2.1c-1-0.6-1.6-2.1-1.4-3.4q-0.7 1.5-1.4 3-0.4-1.1-0.9-2.2c-0.1 1-0.5 2-1.1 2.6q-0.6-0.9-1.2-1.7c0.1 0.7-0.3 1.4-0.8 1.6q-0.4-1-0.7-2-0.3 1-0.6 1.9c-0.4-0.4-0.7-0.9-0.9-1.6-0.2 0.6-0.5 1-0.9 1.3q-0.6-1-1.2-2c0 0.6-0.3 1.2-0.7 1.5-0.6-0.6-1-1.4-1.1-2.3-0.4 1.1-0.2 1.3-0.6 2.3-1-0.7-2-1.8-2.8-3q-0.7 1.7-1.4 3.3c-0.4-0.4-0.7-1.1-0.7-1.8q-0.4 1.2-0.8 2.4c-0.7-0.6-1.1-1.7-1.1-2.8q-0.6 1.2-1.1 2.4c-0.6-0.5-1-1.3-1.3-2.1q-0.3 0.8-0.5 1.6c-0.6 0.2-1.3-0.3-1.5-1.1 0.1 1.3-1.2 2.1-2.2 1.6-0.9-0.5-1.5-1.7-2-2.8q-1 1.6-2.1 3.2c-0.5-0.4-0.9-1-1.1-1.7-0.2 0.8-0.8 1.5-1.5 1.7q-0.4-0.8-0.7-1.6c-0.1 0.8-0.5 1.5-1.1 2q-0.7-1.2-1.4-2.4-0.9 1.6-1.9 3.2-0.5-0.8-0.9-1.5-0.3 0.8-0.6 1.5c-0.7 0-1.2-0.8-1.1-1.5q-0.4 0.8-0.8 1.6c-0.8-0.1-1.4-1.1-1.3-2.1-0.2 0.6-0.3 1.2-0.7 1.6-0.4 0.4-1.2 0.1-1.2-0.5q-0.5 1.1-1.1 2.2-0.4-0.8-0.9-1.6c-0.1 0.7-0.3 1.5-0.8 2-0.5 0.5-1.4 0.3-1.6-0.4q-0.6 0.9-1.3 1.7-0.5-0.6-1.1-1.2c0.1 1.4-1.3 2.6-2.3 1.9 0 0.7-0.1 1.4-0.6 1.8-0.4 0.4-1.2-0.1-1.1-0.7q-0.4 1.6-0.9 3.3-0.2-1.2-0.5-2.3c-0.6 0.4-0.4 1.5-0.4 2.4-0.1 0.9-1.4 1.3-1.2 0.4q-1.3 4.1-3.2 7.7c-0.8 0.8-1.7 1.6-2.6 2.3-5 3.9-12.6 4.8-16-1.2 0 0 2.3 42.3 1.6 42.8-0.7 0.4 49.7 70.6 52.7 70.6 3.1 0 471.9-100.3 471.9-100.3z"/>
				<path id="&lt;Path&gt;" class="s1" d="m598.9 309.9q0-0.1 0.1-0.2-0.1 0.1-0.1 0.2z"/>
				<path id="&lt;Path&gt;" class="s2" d="m610.9 303.1q0-0.1 0.1-0.2-0.1 0.1-0.1 0.2z"/>
			</g>
		</g>
	</g>
	<g id="OBJECTS">
	</g>
</svg>